<?xml version="1.0" encoding="UTF-8"?>
<!DOCTYPE svg PUBLIC "-//W3C//DTD SVG 1.1//EN" "http://www.w3.org/Graphics/SVG/1.1/DTD/svg11.dtd">
<!-- Creator: CorelDRAW 2017 -->
<svg xmlns="http://www.w3.org/2000/svg" xml:space="preserve" width="290px" height="75px" version="1.1" style="shape-rendering:geometricPrecision; text-rendering:geometricPrecision; image-rendering:optimizeQuality; fill-rule:evenodd; clip-rule:evenodd"
viewBox="0 0 287.83 74.32"
 xmlns:xlink="http://www.w3.org/1999/xlink">
 <defs>
  <style type="text/css">
   <![CDATA[
    .fil23 {fill:#FEFEFE}
    .fil22 {fill:#0048CC}
    .fil21 {fill:#329900}
    .fil24 {fill:#656565}
    .fil20 {fill:#FDFFFD}
    .fil1 {fill:#FEFEFE;fill-rule:nonzero}
    .fil19 {fill:#FEFEFE;fill-rule:nonzero}
    .fil0 {fill:#332C2B;fill-rule:nonzero;fill-opacity:0.301961}
    .fil3 {fill:url(#id0)}
    .fil9 {fill:url(#id1)}
    .fil12 {fill:url(#id2)}
    .fil14 {fill:url(#id3)}
    .fil10 {fill:url(#id4)}
    .fil17 {fill:url(#id5)}
    .fil2 {fill:url(#id6)}
    .fil6 {fill:url(#id7)}
    .fil11 {fill:url(#id8)}
    .fil15 {fill:url(#id9)}
    .fil16 {fill:url(#id10)}
    .fil18 {fill:url(#id11)}
    .fil5 {fill:url(#id12)}
    .fil8 {fill:url(#id13)}
    .fil4 {fill:url(#id14)}
    .fil13 {fill:url(#id15)}
    .fil7 {fill:url(#id16)}
   ]]>
  </style>
  <linearGradient id="id0" gradientUnits="userSpaceOnUse" x1="13.34" y1="150.47" x2="13.34" y2="-355.14">
   <stop offset="0" style="stop-opacity:1; stop-color:#FEFEFE"/>
   <stop offset="1" style="stop-opacity:1; stop-color:#FEFEFE"/>
  </linearGradient>
  <linearGradient id="id1" gradientUnits="userSpaceOnUse" x1="1057.62" y1="120.53" x2="1057.62" y2="-319.6">
   <stop offset="0" style="stop-opacity:1; stop-color:#F7FAFC"/>
   <stop offset="1" style="stop-opacity:1; stop-color:#FEFEFE"/>
  </linearGradient>
  <linearGradient id="id2" gradientUnits="userSpaceOnUse" xlink:href="#id0" x1="1057.62" y1="120.53" x2="1057.62" y2="-319.6">
  </linearGradient>
  <linearGradient id="id3" gradientUnits="userSpaceOnUse" xlink:href="#id0" x1="1052.11" y1="120.53" x2="1052.11" y2="-319.6">
  </linearGradient>
  <linearGradient id="id4" gradientUnits="userSpaceOnUse" x1="992.03" y1="120.53" x2="992.03" y2="-319.6">
   <stop offset="0" style="stop-opacity:1; stop-color:#FBFDFE"/>
   <stop offset="1" style="stop-opacity:1; stop-color:#FEFEFE"/>
  </linearGradient>
  <linearGradient id="id5" gradientUnits="userSpaceOnUse" xlink:href="#id0" x1="1057.62" y1="120.53" x2="1057.62" y2="-319.6">
  </linearGradient>
  <linearGradient id="id6" gradientUnits="userSpaceOnUse" xlink:href="#id0" x1="33.48" y1="150.47" x2="33.48" y2="-355.14">
  </linearGradient>
  <linearGradient id="id7" gradientUnits="userSpaceOnUse" x1="1057.62" y1="120.53" x2="1057.62" y2="-319.6">
   <stop offset="0" style="stop-opacity:1; stop-color:#98CAE4"/>
   <stop offset="1" style="stop-opacity:1; stop-color:#FEFEFE"/>
  </linearGradient>
  <linearGradient id="id8" gradientUnits="userSpaceOnUse" xlink:href="#id1" x1="1057.62" y1="120.53" x2="1057.62" y2="-319.6">
  </linearGradient>
  <linearGradient id="id9" gradientUnits="userSpaceOnUse" xlink:href="#id0" x1="1057.62" y1="120.53" x2="1057.62" y2="-319.6">
  </linearGradient>
  <linearGradient id="id10" gradientUnits="userSpaceOnUse" xlink:href="#id0" x1="1057.62" y1="120.53" x2="1057.62" y2="-319.6">
  </linearGradient>
  <linearGradient id="id11" gradientUnits="userSpaceOnUse" xlink:href="#id0" x1="1057.62" y1="120.53" x2="1057.62" y2="-319.6">
  </linearGradient>
  <linearGradient id="id12" gradientUnits="userSpaceOnUse" xlink:href="#id0" x1="45.22" y1="150.47" x2="45.22" y2="-355.14">
  </linearGradient>
  <linearGradient id="id13" gradientUnits="userSpaceOnUse" x1="1057.62" y1="120.53" x2="1057.62" y2="-319.6">
   <stop offset="0" style="stop-opacity:1; stop-color:#CFE5F1"/>
   <stop offset="1" style="stop-opacity:1; stop-color:#FEFEFE"/>
  </linearGradient>
  <linearGradient id="id14" gradientUnits="userSpaceOnUse" xlink:href="#id0" x1="28.02" y1="150.47" x2="28.02" y2="-355.14">
  </linearGradient>
  <linearGradient id="id15" gradientUnits="userSpaceOnUse" xlink:href="#id0" x1="1057.62" y1="120.53" x2="1057.62" y2="-319.6">
  </linearGradient>
  <linearGradient id="id16" gradientUnits="userSpaceOnUse" xlink:href="#id0" x1="1057.47" y1="120.53" x2="1057.47" y2="-319.6">
  </linearGradient>
 </defs>
<symbol id="Fm3-175-0" viewBox="238.21 -860.1 175.24 208.51">
 <polygon class="fil0" points="238.21,-860.1 413.45,-860.1 413.45,-651.6 238.21,-651.6 "/>
</symbol>
<symbol id="Fm8-185-0" viewBox="540.87 -251.17 175.24 208.51">
 <polygon class="fil0" points="540.87,-251.17 716.11,-251.17 716.11,-42.66 540.87,-42.66 "/>
</symbol>
<symbol id="Fm7-183-0" viewBox="540.87 -448.43 175.24 208.31">
 <polygon class="fil0" points="540.87,-448.43 716.11,-448.43 716.11,-240.12 540.87,-240.12 "/>
</symbol>
<symbol id="Fm12-169-0" viewBox="843.81 -251.17 175.24 208.51">
 <polygon class="fil0" points="843.81,-251.17 1019.05,-251.17 1019.05,-42.66 843.81,-42.66 "/>
</symbol>
<symbol id="Fm11-167-0" viewBox="843.81 -448.43 175.24 208.51">
 <polygon class="fil0" points="843.81,-448.43 1019.05,-448.43 1019.05,-239.92 843.81,-239.92 "/>
</symbol>
<symbol id="Fm9-187-0" viewBox="843.81 -860.1 175.24 208.51">
 <polygon class="fil0" points="843.81,-860.1 1019.05,-860.1 1019.05,-651.6 843.81,-651.6 "/>
</symbol>
<symbol id="Fm1-162-0" viewBox="148.76 -197.76 320.24 231.16">
 <path class="fil1" d="M262.19 -78.26c0,0 -2.84,-16.7 -15.67,-19.96 -12.76,-3.24 -29.7,12.19 -29.7,12.19l0 -0.02c0.88,-1.15 17.3,-22.55 33.16,-15.03 7.45,3.54 10.99,10.61 12.21,22.82z"/>
 <path class="fil1" d="M363.62 -27.82l-0.02 0.05c0,0 2.33,-38.52 -33.49,-58.84 -31.76,-18.02 -67.92,8.35 -67.92,8.35 15.08,-13.04 40.27,-30 68.42,-14.66 44.6,24.27 33.53,63.36 33.01,65.1z"/>
 <path class="fil2" d="M148.76 -197.76l0 8.13c8.74,2.11 17.61,5.91 26.29,12l0 0c49.03,34.35 41.74,91.63 41.74,91.63l0.03 -0.05c0.59,-2.1 19.11,-69.27 -36.07,-99.52l0 0c-11.45,-6.29 -22.1,-10.16 -31.99,-12.19z"/>
 <path class="fil1" d="M363.65 -27.8l0 -0.02c0.62,-0.49 6.62,-5.14 16.29,-9.01 -9.89,3.96 -15.94,8.75 -16.29,9.03z"/>
 <path class="fil3" d="M379.94 -36.83c-9.89,3.97 -15.94,8.75 -16.29,9.03l0 0 0 0c1.1,-0.49 18.73,-9.26 40.01,-9.26l0 0c12.32,0 25.88,2.95 38.14,12.15l0 0c21.63,16.22 25.04,42.49 24.89,58.32l0 0 1.89 0c1.21,-12.84 1.95,-51.7 -30.45,-67.9l0 0c-11.21,-5.61 -21.86,-7.64 -31.42,-7.64 -10.46,0 -19.62,2.44 -26.77,5.3l0 0z"/>
 <path class="fil4" d="M179.58 -84.72c5.74,-1.83 10.7,-2.62 14.99,-2.62l0 0c27.57,0 27.35,32.71 27.35,32.71l0 0c0,0 6.91,-21.81 -12.06,-32.96l0 0c-4.47,-2.62 -8.79,-3.57 -12.69,-3.57 -10.19,0 -17.59,6.44 -17.59,6.44l0 0z"/>
 <path class="fil5" d="M328.63 -27.71c5.74,-1.83 10.7,-2.62 14.99,-2.62l0 0c27.58,0 27.35,32.72 27.35,32.72l0 0c0,0 6.91,-21.82 -12.06,-32.97l0 0c-4.47,-2.62 -8.78,-3.57 -12.69,-3.57 -10.19,0 -17.59,6.44 -17.59,6.44l0 0z"/>
</symbol>
<symbol id="Fm6-181-0" viewBox="540.87 -645.69 175.24 208.31">
 <polygon class="fil0" points="540.87,-645.69 716.11,-645.69 716.11,-437.38 540.87,-437.38 "/>
</symbol>
<symbol id="Fm2-173-0" viewBox="592.99 -218.43 497.48 251.83">
 <path class="fil6" d="M1090.47 33.41l0 -131.27c-2.48,-0.25 -5.04,-0.38 -7.66,-0.38l0 0c-1.83,0 -3.68,0.07 -5.57,0.2l0 0c-21.07,1.45 -50.61,16.22 -66.64,49.06l0 0c0,0 6.09,-28.48 30.58,-45.64l0 0c-7.74,-9.18 -25.31,-26.49 -47.71,-26.49l0 0c-14.82,0 -31.75,7.57 -49.36,30.08l0 0c0,0 9.3,-35.47 45.67,-37.92l0 0c1.4,-0.09 2.77,-0.14 4.11,-0.14l0 0c29.33,0 43.52,21.98 48.91,33.37l0 0c8.28,-5.45 18.55,-9.6 31.26,-11.04l0 0c3.35,-0.38 6.58,-0.56 9.7,-0.56l0 0c2.3,0 4.54,0.1 6.71,0.29l0 -45.17c-10.58,0.24 -23.13,3.88 -37.96,12.65l0 0c0,0 14.17,-19.46 37.96,-20.41l0 -32.66c-2.63,-1.31 -5.12,-2 -7.1,-2.26l0 0c-1.53,-0.2 -3,-0.3 -4.42,-0.3l0 0c-16.69,0 -25.36,13.06 -25.36,13.06l0 0c0,0 -27.88,-36.31 -76.72,-36.31 -18.38,0 -39.73,5.15 -63.66,19.3 -6.73,3.97 -12.66,8.52 -17.84,13.52l0 0c5.17,-4.99 11.1,-9.53 17.82,-13.5l0 0c23.93,-14.15 45.27,-19.29 63.65,-19.29l0 0c48.84,0 76.73,36.3 76.73,36.3l0 0c0,0 -29.12,-31.7 -73.39,-31.7l0 0c-20.4,0 -44.01,6.73 -69.48,26.39l0 0c-47,36.27 -35.49,102.61 -32.38,116.79l0 0c0.46,-0.25 0.93,-0.49 1.41,-0.73l0 0c5.68,-2.75 11.02,-3.83 15.91,-3.83l0 0c18.2,0 30.22,14.99 30.22,14.99l0 0c0,0 -13.87,-9.39 -29.35,-9.39l0 0c-13.6,0 -28.45,7.24 -36.26,34.45l0 0c0,0 -3.03,-23.57 17.33,-35.09l0 0c-4.99,-7.55 -11.08,-11.2 -18.16,-11.2l0 0c-2.99,0 -6.16,0.65 -9.49,1.93l0 0c-6.92,2.66 -12.93,10.67 -11.97,21.54l0 0c-3.56,-0.47 -6.71,-0.73 -10.03,-0.73l0 0c-4.22,0 -8.72,0.42 -14.7,1.35l0 0c-22.35,3.48 -38.55,11.17 -50.25,19.99l0 0c11.7,-8.81 27.89,-16.49 50.23,-19.96l0 0c6.02,-0.94 10.53,-1.36 14.78,-1.36l0 0c3.25,0 6.34,0.25 9.83,0.7l0 0 0.11 0.02c-79.81,4.47 -105.97,69.81 -106.76,71.85l0 0c0.7,-3.38 1.52,-6.59 2.41,-9.67l0 0c-22.44,-15.39 -40.37,-22.82 -56.62,-22.82l0 0c-6.18,0 -12.11,1.07 -17.96,3.19l0 0c-25.77,9.35 -37.73,37.66 -41.85,48.8l0 0 473.32 0zm-431.8 -54.58c-1.97,0.61 -3.83,1.29 -5.59,2.04l0 0c1.75,-0.73 3.6,-1.41 5.56,-2.01l0 0c5.54,-1.71 10.99,-2.45 16.28,-2.45l0 0c30.97,0 56.23,25.25 58.67,27.77l0 0c0,0 0.01,0 0.01,-0.01l0 0 0.19 0.21c0,0 0,-0.02 0.01,-0.05l0 0c-0.9,-0.95 -26.84,-27.95 -58.85,-27.95l0 0c-5.29,0 -10.75,0.74 -16.28,2.45zm-40.42 49.63c-8.56,2.02 -17.03,3.62 -25.26,4.95l0 0 0.12 0c8,-1.3 16.23,-2.85 24.54,-4.8l0 0c0.02,0 0.04,0 0.06,0l0 0c0.23,0 0.46,0.2 0.59,0.48l0 0c4.18,-13.32 8.44,-25.78 16.79,-35.38l0 0c-10.13,11.39 -13.63,25.58 -16.84,34.75zm-0.33 1.82c-4.48,1.19 -8.75,2.22 -12.84,3.13l0 0 11.88 0c0.32,-1.05 0.65,-2.1 0.97,-3.13l0 0c0,0 -0.01,0 -0.01,0l0 0z"/>
 <path class="fil1" d="M877.69 -70.28c-17.8,-34.35 -15.09,-83.75 17.68,-115.33 -32.74,31.57 -35.45,80.96 -17.65,115.32 -0.01,0 -0.02,0.01 -0.03,0.01z"/>
 <path class="fil7" d="M913.19 -199.11c-6.72,3.97 -12.65,8.51 -17.82,13.5l0 0c-32.74,31.57 -35.45,80.96 -17.65,115.32l0 0c0.19,-0.12 0.4,-0.23 0.6,-0.33l0 0c-3.11,-14.18 -14.62,-80.52 32.38,-116.79l0 0c25.47,-19.66 49.08,-26.39 69.48,-26.39l0 0c44.27,0 73.39,31.7 73.39,31.7l0 0c0,0 -27.89,-36.3 -76.73,-36.3 -18.38,0 -39.72,5.14 -63.65,19.29l0 0z"/>
 <path class="fil8" d="M617.71 28.61l0 0 -0.01 0 0 0 0 0 0 0 0 0 0 0 -0.01 0c-0.01,0 -0.03,0 -0.04,0l0 0c-8.31,1.95 -16.54,3.5 -24.54,4.8l11.97 0c4.09,-0.91 8.36,-1.94 12.84,-3.13l0 0c0,0 0.01,0 0.01,0l0 0c0.13,-0.4 0.25,-0.8 0.37,-1.19l0 0c-0.13,-0.28 -0.36,-0.48 -0.59,-0.48z"/>
 <path class="fil1" d="M635.09 -6.29c4.56,-5.25 10.33,-9.63 17.99,-12.84 -7.68,3.26 -13.49,7.77 -17.99,12.84z"/>
 <path class="fil9" d="M658.64 -21.14c-1.96,0.6 -3.81,1.28 -5.56,2.01l0 0c-7.68,3.26 -13.49,7.77 -17.99,12.84l0 0c-8.35,9.6 -12.61,22.06 -16.79,35.38l0 0c0.22,0.43 0.21,1.03 -0.37,1.19l0 0c-0.32,1.03 -0.65,2.08 -0.97,3.13l0.19 0c4.12,-11.14 16.08,-39.45 41.85,-48.8l0 0c5.85,-2.12 11.78,-3.19 17.96,-3.19l0 0c16.25,0 34.18,7.43 56.62,22.82l0 0c0,-0.02 0.01,-0.04 0.01,-0.06l0 0c-2.44,-2.52 -27.7,-27.77 -58.67,-27.77 -5.29,0 -10.74,0.74 -16.28,2.45l0 0z"/>
 <path class="fil10" d="M617.93 30.28c0.58,-0.16 0.59,-0.76 0.37,-1.19l0 0c-0.12,0.39 -0.24,0.79 -0.37,1.19z"/>
 <path class="fil1" d="M733.82 4.36c0,0 0,-0.01 -0.02,-0.03 0.27,-1.24 5.43,-23.77 29.18,-41.67 -24.4,18.41 -29.16,41.7 -29.16,41.7z"/>
 <path class="fil11" d="M813.21 -57.3c-22.34,3.47 -38.53,11.15 -50.23,19.96l0 0c-24.4,18.41 -29.16,41.7 -29.16,41.7l0 0c0,0 0,-0.01 -0.02,-0.03l0 0c-0.01,0.03 -0.01,0.05 -0.01,0.05l0 0c-0.07,-0.04 -0.14,-0.09 -0.21,-0.14l0 0c-0.89,3.08 -1.71,6.29 -2.41,9.67 0.79,-2.04 26.95,-67.38 106.76,-71.85l-0.11 -0.02c-3.49,-0.45 -6.58,-0.7 -9.83,-0.7l0 0c-4.25,0 -8.76,0.42 -14.78,1.36zm-79.62 61.48c0.13,0.13 0.2,0.2 0.2,0.2l0 0 -0.19 -0.21c0,0.01 -0.01,0.01 -0.01,0.01l0 0z"/>
 <path class="fil12" d="M733.58 4.24c0.07,0.05 0.14,0.1 0.21,0.14 0,0 -0.07,-0.07 -0.2,-0.2 0,0.02 -0.01,0.04 -0.01,0.06l0 0z"/>
 <path class="fil13" d="M1052.51 -139.55c14.83,-8.77 27.38,-12.41 37.96,-12.65l0 0 0 -7.76c-23.79,0.95 -37.96,20.41 -37.96,20.41z"/>
 <path class="fil1" d="M878.99 -67.93c-0.02,-0.03 -0.04,-0.07 -0.06,-0.1l0 -0.01c0.02,0.04 0.04,0.08 0.06,0.11zm-0.52 -0.89c-0.3,-0.48 -0.59,-0.94 -0.89,-1.4 0.04,-0.02 0.07,-0.04 0.11,-0.06 0.25,0.49 0.51,0.98 0.78,1.46z"/>
 <path class="fil14" d="M879.73 -71.35c-0.48,0.24 -0.95,0.48 -1.41,0.73l0 0c0.31,1.39 0.53,2.27 0.61,2.58l0 0c0.02,0.04 0.04,0.07 0.06,0.11l0 0c-0.02,-0.03 -0.04,-0.07 -0.06,-0.1l0 0c0.02,0.08 0.03,0.11 0.03,0.11l0 0c-0.16,-0.29 -0.33,-0.6 -0.5,-0.9l0 0c-0.29,-0.48 -0.58,-0.94 -0.88,-1.4l0 0c-20.36,11.52 -17.33,35.09 -17.33,35.09 7.81,-27.21 22.66,-34.45 36.26,-34.45l0 0c15.48,0 29.35,9.39 29.35,9.39 0,0 -12.02,-14.99 -30.22,-14.99l0 0c-4.89,0 -10.23,1.08 -15.91,3.83l0 0z"/>
 <path class="fil1" d="M878.93 -68.03c-0.15,-0.27 -0.31,-0.53 -0.46,-0.79 -0.27,-0.48 -0.53,-0.97 -0.78,-1.46 0.01,0 0.02,-0.01 0.03,-0.01 0.39,0.76 0.79,1.51 1.21,2.25l0 0.01z"/>
 <path class="fil15" d="M878.96 -67.92l0 0 0 0c0,0 -0.01,-0.04 -0.03,-0.11l0 0c-0.15,-0.27 -0.31,-0.53 -0.47,-0.79l0 0c0.17,0.3 0.34,0.61 0.5,0.9zm-1.24 -2.37c0.39,0.76 0.79,1.51 1.21,2.25l0 0c-0.08,-0.31 -0.3,-1.19 -0.61,-2.58 -0.2,0.1 -0.41,0.21 -0.6,0.33z"/>
 <path class="fil16" d="M1074.06 -106.76c-12.71,1.44 -22.98,5.59 -31.26,11.04l0 0c1.88,3.98 2.69,6.66 2.69,6.66l0 0c0,0 -1.51,-2.25 -4.31,-5.56l0 0c-24.49,17.16 -30.58,45.64 -30.58,45.64 16.03,-32.84 45.57,-47.61 66.64,-49.06l0 0c1.89,-0.13 3.74,-0.2 5.57,-0.2l0 0c2.62,0 5.18,0.13 7.66,0.38l0 0 0 -9.17c-2.17,-0.19 -4.41,-0.29 -6.71,-0.29l0 0c-3.12,0 -6.35,0.18 -9.7,0.56l0 0z"/>
 <path class="fil17" d="M993.89 -129.09l-0.06 0c-1.32,0 -2.67,0.05 -4.05,0.14l0 0c-36.37,2.45 -45.67,37.92 -45.67,37.92 17.61,-22.51 34.54,-30.08 49.36,-30.08l0 0c22.4,0 39.97,17.31 47.71,26.49l0 0c0.53,-0.38 1.07,-0.74 1.62,-1.1l0 0c-5.39,-11.39 -19.58,-33.37 -48.91,-33.37z"/>
 <path class="fil18" d="M1041.18 -94.62c2.8,3.31 4.31,5.56 4.31,5.56 0,0 -0.81,-2.68 -2.69,-6.66l0 0c-0.55,0.36 -1.09,0.72 -1.62,1.1l0 0z"/>
</symbol>
<symbol id="Fm0-157-0" viewBox="231.22 -652.62 475.54 600.27">
 <path class="fil1" d="M706.76 -52.35l0 -600.27 -304.04 0 0 370.27 -171.5 0 0 183.54c4.31,-2.31 7.93,-3.98 12.72,-3.58 10.37,0.85 20.92,6.53 28.33,16.29l38.86 0c3.75,-1.26 7.69,-1.95 11.77,-1.95 19.28,0 35.4,12.78 40.93,35.7l38.89 0 3.29 0 300.75 0z"/>
</symbol>
<symbol id="Fm4-177-0" viewBox="238.21 -498.35 175.24 208.51">
 <polygon class="fil0" points="238.21,-498.35 413.45,-498.35 413.45,-289.85 238.21,-289.85 "/>
</symbol>
<symbol id="Fm5-179-0" viewBox="238.21 -251.16 175.24 209.5">
 <polygon class="fil0" points="238.21,-251.16 413.45,-251.16 413.45,-41.67 238.21,-41.67 "/>
</symbol>
<symbol id="Fm10-165-0" viewBox="843.81 -645.69 175.24 208.31">
 <polygon class="fil0" points="843.81,-645.69 1019.05,-645.69 1019.05,-437.38 843.81,-437.38 "/>
</symbol>
 <g id="Layer_x0020_1">
  <metadata id="CorelCorpID_0Corel-Layer"/>
  <g id="_1793957194784">
   <g>
    <path class="fil19" d="M85.16 26.94c0,1.01 -0.13,1.89 -0.4,2.65 -0.27,0.76 -0.62,1.39 -1.08,1.9 -0.45,0.5 -0.98,0.89 -1.59,1.14 -0.6,0.26 -1.25,0.39 -1.94,0.39 -0.47,0 -0.9,-0.06 -1.31,-0.17 -0.4,-0.11 -0.75,-0.24 -1.06,-0.4 -0.3,-0.15 -0.56,-0.31 -0.77,-0.48 -0.2,-0.17 -0.35,-0.32 -0.44,-0.45 -0.09,-0.13 -0.16,-0.32 -0.2,-0.56 -0.03,-0.24 -0.05,-0.59 -0.05,-1.04 0,-0.31 0,-0.56 0.02,-0.77 0.01,-0.2 0.03,-0.37 0.07,-0.5 0.03,-0.13 0.07,-0.22 0.12,-0.27 0.05,-0.06 0.12,-0.09 0.19,-0.09 0.09,0 0.23,0.09 0.41,0.25 0.18,0.16 0.41,0.35 0.69,0.54 0.27,0.2 0.61,0.38 1,0.54 0.38,0.17 0.83,0.25 1.34,0.25 0.34,0 0.64,-0.06 0.9,-0.17 0.27,-0.11 0.49,-0.27 0.68,-0.48 0.19,-0.2 0.32,-0.46 0.42,-0.76 0.1,-0.3 0.15,-0.64 0.15,-1.01 0,-0.44 -0.08,-0.81 -0.25,-1.12 -0.17,-0.31 -0.38,-0.58 -0.66,-0.83 -0.26,-0.24 -0.57,-0.46 -0.91,-0.68 -0.34,-0.21 -0.69,-0.43 -1.06,-0.67 -0.36,-0.23 -0.72,-0.5 -1.05,-0.8 -0.35,-0.3 -0.65,-0.66 -0.92,-1.08 -0.27,-0.42 -0.49,-0.91 -0.66,-1.49 -0.17,-0.57 -0.25,-1.25 -0.25,-2.05 0,-0.92 0.12,-1.72 0.36,-2.42 0.24,-0.69 0.57,-1.27 0.97,-1.72 0.41,-0.46 0.89,-0.81 1.44,-1.03 0.56,-0.23 1.15,-0.34 1.77,-0.34 0.31,0 0.64,0.03 0.96,0.1 0.32,0.07 0.62,0.17 0.9,0.28 0.27,0.12 0.52,0.25 0.74,0.4 0.21,0.15 0.35,0.27 0.43,0.37 0.06,0.1 0.11,0.19 0.13,0.25 0.03,0.07 0.05,0.16 0.07,0.28 0.02,0.11 0.03,0.25 0.03,0.43 0.01,0.17 0.02,0.38 0.02,0.64 0,0.28 -0.01,0.52 -0.02,0.72 -0.01,0.2 -0.03,0.36 -0.05,0.49 -0.03,0.13 -0.06,0.22 -0.11,0.28 -0.04,0.06 -0.1,0.09 -0.18,0.09 -0.08,0 -0.2,-0.07 -0.37,-0.21 -0.16,-0.14 -0.37,-0.29 -0.61,-0.45 -0.25,-0.17 -0.53,-0.31 -0.85,-0.44 -0.32,-0.14 -0.67,-0.2 -1.06,-0.2 -0.3,0 -0.56,0.05 -0.78,0.15 -0.22,0.1 -0.41,0.25 -0.56,0.43 -0.15,0.18 -0.26,0.4 -0.33,0.66 -0.08,0.25 -0.11,0.53 -0.11,0.81 0,0.42 0.08,0.79 0.24,1.1 0.17,0.31 0.39,0.59 0.66,0.83 0.28,0.24 0.59,0.47 0.94,0.68 0.35,0.21 0.7,0.44 1.07,0.67 0.36,0.24 0.72,0.5 1.06,0.81 0.35,0.3 0.66,0.66 0.94,1.08 0.27,0.41 0.49,0.9 0.66,1.47 0.17,0.57 0.25,1.24 0.25,2z"/>
    <path id="1" class="fil19" d="M96.03 15.15c0,0.28 -0.01,0.53 -0.03,0.73 -0.01,0.2 -0.04,0.37 -0.08,0.49 -0.03,0.12 -0.07,0.21 -0.13,0.27 -0.05,0.06 -0.11,0.09 -0.17,0.09l-3.38 0 0 15.42c0,0.1 -0.02,0.19 -0.07,0.27 -0.05,0.08 -0.12,0.14 -0.22,0.19 -0.11,0.05 -0.25,0.09 -0.43,0.12 -0.18,0.03 -0.4,0.05 -0.66,0.05 -0.27,0 -0.49,-0.02 -0.67,-0.05 -0.17,-0.03 -0.32,-0.07 -0.42,-0.12 -0.1,-0.05 -0.18,-0.11 -0.22,-0.19 -0.05,-0.08 -0.07,-0.17 -0.07,-0.27l0 -15.42 -3.38 0c-0.07,0 -0.13,-0.03 -0.18,-0.09 -0.05,-0.06 -0.09,-0.15 -0.13,-0.27 -0.03,-0.12 -0.06,-0.29 -0.08,-0.49 -0.01,-0.2 -0.02,-0.45 -0.02,-0.73 0,-0.3 0.01,-0.55 0.02,-0.76 0.02,-0.2 0.05,-0.37 0.08,-0.49 0.04,-0.13 0.08,-0.21 0.13,-0.27 0.05,-0.05 0.11,-0.08 0.18,-0.08l9.52 0c0.06,0 0.12,0.03 0.17,0.08 0.06,0.06 0.1,0.14 0.13,0.27 0.04,0.12 0.07,0.29 0.08,0.49 0.02,0.21 0.03,0.46 0.03,0.76z"/>
    <path id="2" class="fil19" d="M107.03 31.24c0.08,0.35 0.14,0.63 0.16,0.84 0.02,0.21 -0.01,0.36 -0.09,0.47 -0.07,0.1 -0.21,0.16 -0.41,0.19 -0.19,0.03 -0.46,0.04 -0.8,0.04 -0.35,0 -0.63,-0.01 -0.83,-0.02 -0.2,-0.02 -0.35,-0.05 -0.46,-0.1 -0.1,-0.04 -0.17,-0.1 -0.21,-0.18 -0.05,-0.08 -0.08,-0.18 -0.11,-0.31l-0.89 -3.84 -5.1 0 -0.85 3.73c-0.03,0.15 -0.06,0.26 -0.11,0.35 -0.04,0.1 -0.12,0.17 -0.22,0.22 -0.1,0.06 -0.24,0.1 -0.43,0.12 -0.18,0.02 -0.42,0.03 -0.72,0.03 -0.32,0 -0.57,-0.02 -0.76,-0.05 -0.18,-0.03 -0.3,-0.1 -0.37,-0.21 -0.07,-0.12 -0.1,-0.28 -0.08,-0.49 0.03,-0.2 0.08,-0.48 0.16,-0.82l4.17 -16.98c0.04,-0.17 0.09,-0.31 0.14,-0.41 0.06,-0.1 0.15,-0.18 0.27,-0.23 0.12,-0.06 0.29,-0.09 0.51,-0.11 0.21,-0.01 0.5,-0.02 0.85,-0.02 0.41,0 0.74,0.01 0.99,0.02 0.24,0.02 0.43,0.05 0.57,0.11 0.13,0.05 0.23,0.13 0.29,0.24 0.06,0.11 0.11,0.26 0.15,0.44l4.18 16.97zm-6.21 -14.05l-0.01 0 -1.88 8.14 3.79 0 -1.9 -8.14z"/>
    <path id="3" class="fil19" d="M116.95 26.94c0,1.01 -0.13,1.89 -0.39,2.65 -0.27,0.76 -0.63,1.39 -1.08,1.9 -0.46,0.5 -0.99,0.89 -1.59,1.14 -0.61,0.26 -1.26,0.39 -1.95,0.39 -0.47,0 -0.9,-0.06 -1.3,-0.17 -0.4,-0.11 -0.76,-0.24 -1.06,-0.4 -0.31,-0.15 -0.57,-0.31 -0.77,-0.48 -0.21,-0.17 -0.36,-0.32 -0.45,-0.45 -0.09,-0.13 -0.15,-0.32 -0.19,-0.56 -0.04,-0.24 -0.06,-0.59 -0.06,-1.04 0,-0.31 0.01,-0.56 0.02,-0.77 0.02,-0.2 0.04,-0.37 0.07,-0.5 0.03,-0.13 0.07,-0.22 0.12,-0.27 0.06,-0.06 0.12,-0.09 0.19,-0.09 0.1,0 0.24,0.09 0.41,0.25 0.18,0.16 0.41,0.35 0.69,0.54 0.28,0.2 0.61,0.38 1,0.54 0.39,0.17 0.84,0.25 1.35,0.25 0.33,0 0.63,-0.06 0.9,-0.17 0.26,-0.11 0.49,-0.27 0.67,-0.48 0.19,-0.2 0.33,-0.46 0.43,-0.76 0.09,-0.3 0.14,-0.64 0.14,-1.01 0,-0.44 -0.08,-0.81 -0.25,-1.12 -0.16,-0.31 -0.38,-0.58 -0.65,-0.83 -0.27,-0.24 -0.58,-0.46 -0.92,-0.68 -0.34,-0.21 -0.69,-0.43 -1.05,-0.67 -0.37,-0.23 -0.72,-0.5 -1.06,-0.8 -0.34,-0.3 -0.65,-0.66 -0.92,-1.08 -0.27,-0.42 -0.49,-0.91 -0.65,-1.49 -0.17,-0.57 -0.25,-1.25 -0.25,-2.05 0,-0.92 0.12,-1.72 0.36,-2.42 0.24,-0.69 0.56,-1.27 0.97,-1.72 0.41,-0.46 0.89,-0.81 1.44,-1.03 0.55,-0.23 1.14,-0.34 1.76,-0.34 0.32,0 0.64,0.03 0.96,0.1 0.32,0.07 0.62,0.17 0.9,0.28 0.28,0.12 0.52,0.25 0.74,0.4 0.22,0.15 0.36,0.27 0.43,0.37 0.07,0.1 0.11,0.19 0.14,0.25 0.02,0.07 0.04,0.16 0.06,0.28 0.02,0.11 0.03,0.25 0.04,0.43 0.01,0.17 0.01,0.38 0.01,0.64 0,0.28 0,0.52 -0.02,0.72 -0.01,0.2 -0.02,0.36 -0.05,0.49 -0.02,0.13 -0.06,0.22 -0.1,0.28 -0.05,0.06 -0.11,0.09 -0.19,0.09 -0.07,0 -0.19,-0.07 -0.36,-0.21 -0.17,-0.14 -0.38,-0.29 -0.62,-0.45 -0.24,-0.17 -0.53,-0.31 -0.85,-0.44 -0.32,-0.14 -0.67,-0.2 -1.05,-0.2 -0.3,0 -0.56,0.05 -0.79,0.15 -0.22,0.1 -0.41,0.25 -0.56,0.43 -0.14,0.18 -0.26,0.4 -0.33,0.66 -0.08,0.25 -0.11,0.53 -0.11,0.81 0,0.42 0.08,0.79 0.25,1.1 0.16,0.31 0.38,0.59 0.66,0.83 0.27,0.24 0.58,0.47 0.93,0.68 0.35,0.21 0.71,0.44 1.07,0.67 0.36,0.24 0.72,0.5 1.07,0.81 0.35,0.3 0.66,0.66 0.93,1.08 0.27,0.41 0.49,0.9 0.66,1.47 0.17,0.57 0.25,1.24 0.25,2z"/>
    <path id="4" class="fil19" d="M121.8 32.15c0,0.1 -0.02,0.19 -0.06,0.27 -0.05,0.08 -0.13,0.14 -0.23,0.19 -0.1,0.05 -0.25,0.09 -0.42,0.12 -0.17,0.03 -0.4,0.05 -0.67,0.05 -0.26,0 -0.48,-0.02 -0.66,-0.05 -0.18,-0.03 -0.32,-0.07 -0.43,-0.12 -0.1,-0.05 -0.17,-0.11 -0.22,-0.19 -0.05,-0.08 -0.07,-0.17 -0.07,-0.27l0 -18.07c0,-0.09 0.02,-0.19 0.07,-0.27 0.05,-0.07 0.12,-0.14 0.23,-0.19 0.11,-0.05 0.25,-0.08 0.42,-0.11 0.18,-0.03 0.4,-0.05 0.66,-0.05 0.27,0 0.5,0.02 0.67,0.05 0.17,0.03 0.32,0.06 0.42,0.11 0.1,0.05 0.18,0.12 0.23,0.19 0.04,0.08 0.06,0.18 0.06,0.27l0 18.07z"/>
    <path id="5" class="fil19" d="M135.77 25.56c0,1.17 -0.12,2.22 -0.36,3.14 -0.25,0.93 -0.6,1.71 -1.08,2.35 -0.47,0.64 -1.06,1.13 -1.75,1.46 -0.7,0.34 -1.5,0.51 -2.41,0.51 -0.85,0 -1.61,-0.15 -2.28,-0.45 -0.68,-0.3 -1.25,-0.76 -1.72,-1.37 -0.47,-0.61 -0.82,-1.37 -1.07,-2.28 -0.25,-0.92 -0.37,-1.98 -0.37,-3.2l0 -11.64c0,-0.09 0.02,-0.19 0.06,-0.27 0.04,-0.07 0.12,-0.14 0.22,-0.19 0.11,-0.05 0.25,-0.08 0.43,-0.11 0.17,-0.03 0.39,-0.05 0.67,-0.05 0.26,0 0.48,0.02 0.65,0.05 0.17,0.03 0.31,0.06 0.42,0.11 0.1,0.05 0.17,0.12 0.22,0.19 0.05,0.08 0.07,0.18 0.07,0.27l0 11.3c0,0.77 0.07,1.42 0.2,1.98 0.13,0.56 0.32,1.02 0.57,1.38 0.24,0.37 0.54,0.64 0.89,0.83 0.34,0.18 0.73,0.27 1.15,0.27 0.43,0 0.82,-0.1 1.16,-0.28 0.34,-0.19 0.63,-0.46 0.87,-0.82 0.24,-0.36 0.42,-0.81 0.55,-1.33 0.13,-0.53 0.19,-1.13 0.19,-1.8l0 -11.53c0,-0.09 0.03,-0.19 0.07,-0.27 0.04,-0.07 0.11,-0.14 0.22,-0.19 0.1,-0.05 0.24,-0.08 0.42,-0.11 0.18,-0.03 0.4,-0.05 0.66,-0.05 0.27,0 0.49,0.02 0.66,0.05 0.17,0.03 0.31,0.06 0.41,0.11 0.1,0.05 0.18,0.12 0.22,0.19 0.04,0.08 0.06,0.18 0.06,0.27l0 11.48z"/>
    <path id="6" class="fil19" d="M149.88 31.32c0,0.23 -0.03,0.43 -0.09,0.61 -0.05,0.18 -0.13,0.33 -0.22,0.45 -0.1,0.11 -0.21,0.2 -0.34,0.25 -0.13,0.06 -0.26,0.08 -0.39,0.08l-1.17 0c-0.25,0 -0.46,-0.03 -0.64,-0.1 -0.17,-0.07 -0.34,-0.19 -0.49,-0.37 -0.15,-0.19 -0.29,-0.43 -0.43,-0.75 -0.14,-0.3 -0.3,-0.71 -0.47,-1.2l-3.36 -8.95c-0.2,-0.53 -0.39,-1.11 -0.6,-1.72 -0.2,-0.62 -0.38,-1.22 -0.54,-1.8l-0.02 0c0.03,0.71 0.05,1.42 0.07,2.12 0.01,0.71 0.02,1.44 0.02,2.18l0 10.02c0,0.1 -0.02,0.19 -0.06,0.27 -0.04,0.07 -0.11,0.14 -0.2,0.19 -0.09,0.06 -0.22,0.1 -0.38,0.13 -0.16,0.03 -0.37,0.05 -0.62,0.05 -0.25,0 -0.45,-0.02 -0.61,-0.05 -0.16,-0.03 -0.28,-0.07 -0.37,-0.13 -0.1,-0.05 -0.16,-0.12 -0.19,-0.19 -0.04,-0.08 -0.06,-0.17 -0.06,-0.27l0 -17.2c0,-0.46 0.1,-0.81 0.29,-1.04 0.19,-0.23 0.43,-0.35 0.71,-0.35l1.47 0c0.27,0 0.49,0.03 0.67,0.1 0.18,0.06 0.35,0.17 0.49,0.31 0.14,0.15 0.28,0.36 0.4,0.62 0.13,0.26 0.25,0.59 0.39,0.97l2.63 7c0.15,0.42 0.3,0.84 0.45,1.25 0.15,0.41 0.3,0.82 0.43,1.23 0.14,0.4 0.28,0.81 0.41,1.2 0.13,0.4 0.26,0.79 0.39,1.19l0.01 0c-0.02,-0.69 -0.04,-1.42 -0.05,-2.16 -0.01,-0.75 -0.02,-1.47 -0.02,-2.15l0 -8.98c0,-0.1 0.02,-0.19 0.07,-0.27 0.04,-0.08 0.11,-0.15 0.2,-0.21 0.1,-0.06 0.23,-0.1 0.39,-0.12 0.16,-0.03 0.37,-0.04 0.62,-0.04 0.24,0 0.44,0.01 0.6,0.04 0.16,0.02 0.28,0.06 0.37,0.12 0.09,0.06 0.15,0.13 0.18,0.21 0.04,0.08 0.06,0.17 0.06,0.27l0 17.19z"/>
    <path id="7" class="fil19" d="M173.41 32.15c0,0.1 -0.01,0.19 -0.05,0.27 -0.04,0.08 -0.11,0.14 -0.21,0.19 -0.1,0.05 -0.24,0.09 -0.41,0.12 -0.16,0.03 -0.38,0.05 -0.64,0.05 -0.25,0 -0.46,-0.02 -0.63,-0.05 -0.16,-0.03 -0.3,-0.07 -0.4,-0.12 -0.09,-0.05 -0.16,-0.11 -0.2,-0.19 -0.05,-0.08 -0.07,-0.17 -0.07,-0.27l0 -15.57 -0.02 0 -3.91 15.56c-0.02,0.13 -0.07,0.23 -0.13,0.32 -0.06,0.08 -0.15,0.15 -0.26,0.2 -0.1,0.04 -0.24,0.08 -0.41,0.1 -0.17,0.01 -0.37,0.02 -0.6,0.02 -0.24,0 -0.44,-0.01 -0.61,-0.04 -0.17,-0.03 -0.31,-0.07 -0.41,-0.12 -0.11,-0.06 -0.2,-0.12 -0.26,-0.2 -0.06,-0.08 -0.11,-0.17 -0.13,-0.28l-3.77 -15.56 -0.02 0 0 15.57c0,0.1 -0.02,0.19 -0.06,0.27 -0.03,0.08 -0.11,0.14 -0.21,0.19 -0.11,0.05 -0.24,0.09 -0.41,0.12 -0.16,0.03 -0.37,0.05 -0.63,0.05 -0.25,0 -0.46,-0.02 -0.63,-0.05 -0.17,-0.03 -0.3,-0.07 -0.4,-0.12 -0.1,-0.05 -0.17,-0.11 -0.21,-0.19 -0.04,-0.08 -0.06,-0.17 -0.06,-0.27l0 -17.04c0,-0.51 0.09,-0.89 0.28,-1.16 0.19,-0.27 0.44,-0.4 0.76,-0.4l1.8 0c0.32,0 0.6,0.04 0.82,0.11 0.24,0.08 0.44,0.2 0.6,0.37 0.17,0.17 0.31,0.4 0.42,0.68 0.11,0.28 0.21,0.63 0.29,1.05l2.92 11.39 0.04 0 3.02 -11.37c0.09,-0.41 0.19,-0.76 0.29,-1.05 0.12,-0.28 0.24,-0.51 0.38,-0.69 0.15,-0.18 0.32,-0.3 0.51,-0.38 0.2,-0.07 0.42,-0.11 0.68,-0.11l1.86 0c0.19,0 0.35,0.04 0.48,0.11 0.14,0.06 0.25,0.16 0.34,0.3 0.09,0.13 0.15,0.29 0.2,0.48 0.04,0.2 0.06,0.42 0.06,0.67l0 17.04z"/>
    <path id="8" class="fil19" d="M184.37 31.16c0,0.28 0,0.52 -0.02,0.72 -0.02,0.19 -0.04,0.35 -0.08,0.46 -0.04,0.12 -0.08,0.21 -0.13,0.26 -0.05,0.06 -0.11,0.08 -0.17,0.08l-6.79 0c-0.23,0 -0.42,-0.09 -0.58,-0.28 -0.15,-0.19 -0.23,-0.51 -0.23,-0.94l0 -16.68c0,-0.44 0.08,-0.75 0.23,-0.94 0.16,-0.19 0.35,-0.29 0.58,-0.29l6.75 0c0.07,0 0.12,0.03 0.17,0.08 0.05,0.05 0.09,0.13 0.13,0.25 0.03,0.13 0.06,0.29 0.08,0.48 0.01,0.2 0.02,0.44 0.02,0.74 0,0.27 -0.01,0.5 -0.02,0.7 -0.02,0.19 -0.05,0.35 -0.08,0.47 -0.04,0.12 -0.08,0.2 -0.13,0.26 -0.05,0.05 -0.1,0.08 -0.17,0.08l-4.82 0 0 4.66 4.06 0c0.07,0 0.13,0.03 0.18,0.08 0.05,0.06 0.09,0.14 0.13,0.25 0.03,0.12 0.06,0.27 0.08,0.46 0.01,0.2 0.02,0.43 0.02,0.7 0,0.29 -0.01,0.52 -0.02,0.71 -0.02,0.19 -0.05,0.34 -0.08,0.45 -0.04,0.12 -0.08,0.2 -0.13,0.24 -0.05,0.05 -0.11,0.08 -0.18,0.08l-4.06 0 0 5.39 4.86 0c0.06,0 0.12,0.02 0.17,0.08 0.05,0.05 0.09,0.14 0.13,0.26 0.04,0.12 0.06,0.27 0.08,0.46 0.02,0.2 0.02,0.44 0.02,0.73z"/>
    <path id="9" class="fil19" d="M195.8 15.15c0,0.28 -0.01,0.53 -0.02,0.73 -0.02,0.2 -0.05,0.37 -0.08,0.49 -0.04,0.12 -0.08,0.21 -0.14,0.27 -0.05,0.06 -0.11,0.09 -0.17,0.09l-3.38 0 0 15.42c0,0.1 -0.02,0.19 -0.07,0.27 -0.04,0.08 -0.12,0.14 -0.22,0.19 -0.1,0.05 -0.25,0.09 -0.43,0.12 -0.17,0.03 -0.4,0.05 -0.66,0.05 -0.26,0 -0.48,-0.02 -0.66,-0.05 -0.18,-0.03 -0.32,-0.07 -0.43,-0.12 -0.1,-0.05 -0.18,-0.11 -0.22,-0.19 -0.05,-0.08 -0.07,-0.17 -0.07,-0.27l0 -15.42 -3.38 0c-0.07,0 -0.13,-0.03 -0.18,-0.09 -0.05,-0.06 -0.09,-0.15 -0.13,-0.27 -0.03,-0.12 -0.06,-0.29 -0.07,-0.49 -0.02,-0.2 -0.03,-0.45 -0.03,-0.73 0,-0.3 0.01,-0.55 0.03,-0.76 0.01,-0.2 0.04,-0.37 0.07,-0.49 0.04,-0.13 0.08,-0.21 0.13,-0.27 0.05,-0.05 0.11,-0.08 0.18,-0.08l9.52 0c0.06,0 0.12,0.03 0.17,0.08 0.06,0.06 0.1,0.14 0.14,0.27 0.03,0.12 0.06,0.29 0.08,0.49 0.01,0.21 0.02,0.46 0.02,0.76z"/>
    <path id="10" class="fil19" d="M205.41 31.16c0,0.28 0,0.52 -0.02,0.72 -0.02,0.19 -0.04,0.35 -0.08,0.46 -0.03,0.12 -0.08,0.21 -0.13,0.26 -0.05,0.06 -0.11,0.08 -0.17,0.08l-6.79 0c-0.23,0 -0.42,-0.09 -0.58,-0.28 -0.15,-0.19 -0.23,-0.51 -0.23,-0.94l0 -16.68c0,-0.44 0.08,-0.75 0.23,-0.94 0.16,-0.19 0.35,-0.29 0.58,-0.29l6.76 0c0.06,0 0.11,0.03 0.16,0.08 0.05,0.05 0.09,0.13 0.13,0.25 0.03,0.13 0.06,0.29 0.08,0.48 0.01,0.2 0.02,0.44 0.02,0.74 0,0.27 -0.01,0.5 -0.02,0.7 -0.02,0.19 -0.05,0.35 -0.08,0.47 -0.04,0.12 -0.08,0.2 -0.13,0.26 -0.05,0.05 -0.1,0.08 -0.16,0.08l-4.83 0 0 4.66 4.07 0c0.06,0 0.12,0.03 0.17,0.08 0.05,0.06 0.09,0.14 0.13,0.25 0.03,0.12 0.06,0.27 0.08,0.46 0.02,0.2 0.02,0.43 0.02,0.7 0,0.29 0,0.52 -0.02,0.71 -0.02,0.19 -0.05,0.34 -0.08,0.45 -0.04,0.12 -0.08,0.2 -0.13,0.24 -0.05,0.05 -0.11,0.08 -0.17,0.08l-4.07 0 0 5.39 4.86 0c0.06,0 0.12,0.02 0.17,0.08 0.05,0.05 0.1,0.14 0.13,0.26 0.04,0.12 0.06,0.27 0.08,0.46 0.02,0.2 0.02,0.44 0.02,0.73z"/>
    <path id="11" class="fil19" d="M219.64 22.9c0,1.58 -0.14,3 -0.42,4.25 -0.27,1.25 -0.69,2.32 -1.24,3.18 -0.55,0.88 -1.23,1.54 -2.04,2 -0.81,0.46 -1.75,0.69 -2.82,0.69 -1.05,0 -1.97,-0.2 -2.75,-0.59 -0.79,-0.39 -1.44,-0.98 -1.96,-1.78 -0.52,-0.8 -0.92,-1.81 -1.18,-3.04 -0.26,-1.23 -0.39,-2.69 -0.39,-4.38 0,-1.54 0.14,-2.93 0.42,-4.17 0.28,-1.24 0.69,-2.28 1.24,-3.15 0.55,-0.87 1.23,-1.54 2.04,-2 0.82,-0.46 1.76,-0.69 2.83,-0.69 1.03,0 1.93,0.19 2.71,0.57 0.79,0.39 1.44,0.98 1.97,1.78 0.52,0.8 0.92,1.8 1.19,3.02 0.27,1.22 0.4,2.65 0.4,4.31zm-2.89 0.19c0,-1 -0.06,-1.91 -0.17,-2.74 -0.11,-0.82 -0.3,-1.53 -0.56,-2.11 -0.27,-0.59 -0.63,-1.04 -1.07,-1.36 -0.45,-0.32 -1.01,-0.48 -1.67,-0.48 -0.68,0 -1.24,0.18 -1.69,0.54 -0.45,0.36 -0.82,0.84 -1.1,1.44 -0.28,0.6 -0.47,1.3 -0.59,2.1 -0.11,0.81 -0.17,1.66 -0.17,2.56 0,1.04 0.06,1.98 0.17,2.81 0.11,0.84 0.3,1.55 0.56,2.14 0.27,0.59 0.62,1.04 1.07,1.35 0.44,0.31 1,0.47 1.68,0.47 0.67,0 1.23,-0.18 1.68,-0.54 0.46,-0.35 0.82,-0.83 1.1,-1.44 0.28,-0.61 0.48,-1.33 0.59,-2.14 0.11,-0.81 0.17,-1.68 0.17,-2.6z"/>
    <path id="12" class="fil19" d="M232 32.19c0,0.1 -0.01,0.19 -0.04,0.27 -0.03,0.07 -0.1,0.13 -0.2,0.18 -0.11,0.05 -0.26,0.09 -0.46,0.11 -0.2,0.02 -0.48,0.03 -0.82,0.03 -0.3,0 -0.53,-0.01 -0.7,-0.03 -0.18,-0.02 -0.32,-0.06 -0.42,-0.12 -0.1,-0.05 -0.17,-0.12 -0.21,-0.2 -0.04,-0.09 -0.08,-0.19 -0.1,-0.31l-1.22 -4.28c-0.15,-0.48 -0.29,-0.92 -0.43,-1.29 -0.14,-0.38 -0.3,-0.69 -0.47,-0.94 -0.17,-0.26 -0.37,-0.44 -0.6,-0.57 -0.22,-0.13 -0.48,-0.2 -0.77,-0.2l-0.86 0 0 7.31c0,0.1 -0.02,0.19 -0.07,0.27 -0.04,0.08 -0.12,0.14 -0.22,0.19 -0.11,0.05 -0.24,0.09 -0.42,0.12 -0.17,0.03 -0.4,0.05 -0.66,0.05 -0.27,0 -0.49,-0.02 -0.67,-0.05 -0.18,-0.03 -0.31,-0.07 -0.42,-0.12 -0.1,-0.05 -0.18,-0.11 -0.22,-0.19 -0.04,-0.08 -0.06,-0.17 -0.06,-0.27l0 -17.37c0,-0.44 0.08,-0.75 0.24,-0.94 0.15,-0.19 0.35,-0.29 0.57,-0.29l3.51 0c0.35,0 0.65,0.01 0.87,0.03 0.23,0.02 0.44,0.05 0.63,0.07 0.54,0.11 1.03,0.3 1.47,0.57 0.43,0.26 0.81,0.61 1.11,1.04 0.3,0.43 0.53,0.93 0.69,1.52 0.16,0.58 0.24,1.25 0.24,2.01 0,0.64 -0.05,1.22 -0.17,1.75 -0.12,0.53 -0.28,1 -0.51,1.41 -0.22,0.42 -0.49,0.77 -0.82,1.08 -0.33,0.3 -0.71,0.55 -1.12,0.74 0.2,0.14 0.39,0.3 0.57,0.5 0.18,0.2 0.34,0.44 0.5,0.72 0.16,0.28 0.31,0.6 0.45,0.96 0.14,0.36 0.27,0.77 0.4,1.22l1.15 3.78c0.1,0.38 0.17,0.65 0.21,0.83 0.03,0.17 0.05,0.3 0.05,0.41zm-3.55 -13c0,-0.63 -0.1,-1.16 -0.31,-1.59 -0.2,-0.44 -0.53,-0.74 -0.99,-0.92 -0.14,-0.05 -0.3,-0.09 -0.48,-0.12 -0.18,-0.03 -0.42,-0.04 -0.74,-0.04l-1.23 0 0 5.42 1.4 0c0.39,0 0.73,-0.07 1.03,-0.2 0.29,-0.14 0.53,-0.32 0.73,-0.56 0.2,-0.24 0.34,-0.53 0.44,-0.87 0.1,-0.33 0.15,-0.7 0.15,-1.12z"/>
    <path id="13" class="fil19" d="M245.96 22.9c0,1.58 -0.14,3 -0.42,4.25 -0.28,1.25 -0.69,2.32 -1.24,3.18 -0.55,0.88 -1.23,1.54 -2.04,2 -0.82,0.46 -1.76,0.69 -2.82,0.69 -1.05,0 -1.97,-0.2 -2.75,-0.59 -0.79,-0.39 -1.44,-0.98 -1.97,-1.78 -0.52,-0.8 -0.91,-1.81 -1.17,-3.04 -0.26,-1.23 -0.39,-2.69 -0.39,-4.38 0,-1.54 0.14,-2.93 0.42,-4.17 0.27,-1.24 0.69,-2.28 1.24,-3.15 0.55,-0.87 1.23,-1.54 2.04,-2 0.82,-0.46 1.76,-0.69 2.83,-0.69 1.02,0 1.93,0.19 2.71,0.57 0.78,0.39 1.44,0.98 1.96,1.78 0.53,0.8 0.93,1.8 1.2,3.02 0.26,1.22 0.4,2.65 0.4,4.31zm-2.89 0.19c0,-1 -0.06,-1.91 -0.17,-2.74 -0.11,-0.82 -0.3,-1.53 -0.57,-2.11 -0.26,-0.59 -0.62,-1.04 -1.07,-1.36 -0.44,-0.32 -1,-0.48 -1.67,-0.48 -0.67,0 -1.23,0.18 -1.68,0.54 -0.46,0.36 -0.82,0.84 -1.1,1.44 -0.28,0.6 -0.48,1.3 -0.59,2.1 -0.11,0.81 -0.17,1.66 -0.17,2.56 0,1.04 0.06,1.98 0.17,2.81 0.11,0.84 0.3,1.55 0.56,2.14 0.26,0.59 0.62,1.04 1.06,1.35 0.45,0.31 1.01,0.47 1.68,0.47 0.68,0 1.24,-0.18 1.69,-0.54 0.45,-0.35 0.82,-0.83 1.1,-1.44 0.28,-0.61 0.47,-1.33 0.59,-2.14 0.11,-0.81 0.17,-1.68 0.17,-2.6z"/>
    <path id="14" class="fil19" d="M255.71 31.06c0,0.29 -0.01,0.54 -0.03,0.75 -0.02,0.2 -0.05,0.37 -0.08,0.5 -0.03,0.13 -0.08,0.23 -0.13,0.28 -0.05,0.06 -0.11,0.09 -0.18,0.09l-6.2 0c-0.23,0 -0.42,-0.09 -0.58,-0.28 -0.15,-0.19 -0.23,-0.51 -0.23,-0.94l0 -17.38c0,-0.09 0.02,-0.19 0.07,-0.27 0.04,-0.07 0.12,-0.14 0.22,-0.19 0.1,-0.05 0.25,-0.08 0.42,-0.11 0.18,-0.03 0.4,-0.05 0.67,-0.05 0.27,0 0.49,0.02 0.67,0.05 0.17,0.03 0.31,0.06 0.42,0.11 0.1,0.05 0.17,0.12 0.22,0.19 0.05,0.08 0.07,0.18 0.07,0.27l0 15.4 4.25 0c0.07,0 0.13,0.02 0.18,0.08 0.05,0.05 0.1,0.14 0.13,0.26 0.04,0.12 0.06,0.29 0.08,0.49 0.02,0.21 0.03,0.45 0.03,0.75z"/>
    <path id="15" class="fil19" d="M269.11 22.9c0,1.58 -0.14,3 -0.42,4.25 -0.27,1.25 -0.69,2.32 -1.24,3.18 -0.55,0.88 -1.23,1.54 -2.04,2 -0.81,0.46 -1.75,0.69 -2.82,0.69 -1.05,0 -1.97,-0.2 -2.75,-0.59 -0.78,-0.39 -1.44,-0.98 -1.96,-1.78 -0.52,-0.8 -0.92,-1.81 -1.18,-3.04 -0.26,-1.23 -0.39,-2.69 -0.39,-4.38 0,-1.54 0.14,-2.93 0.42,-4.17 0.28,-1.24 0.69,-2.28 1.24,-3.15 0.55,-0.87 1.24,-1.54 2.04,-2 0.82,-0.46 1.76,-0.69 2.83,-0.69 1.03,0 1.93,0.19 2.72,0.57 0.78,0.39 1.43,0.98 1.96,1.78 0.53,0.8 0.92,1.8 1.19,3.02 0.27,1.22 0.4,2.65 0.4,4.31zm-2.89 0.19c0,-1 -0.05,-1.91 -0.17,-2.74 -0.11,-0.82 -0.29,-1.53 -0.56,-2.11 -0.27,-0.59 -0.63,-1.04 -1.07,-1.36 -0.45,-0.32 -1.01,-0.48 -1.67,-0.48 -0.68,0 -1.24,0.18 -1.69,0.54 -0.45,0.36 -0.82,0.84 -1.1,1.44 -0.28,0.6 -0.47,1.3 -0.59,2.1 -0.11,0.81 -0.17,1.66 -0.17,2.56 0,1.04 0.06,1.98 0.17,2.81 0.11,0.84 0.3,1.55 0.56,2.14 0.27,0.59 0.62,1.04 1.07,1.35 0.44,0.31 1,0.47 1.68,0.47 0.67,0 1.23,-0.18 1.68,-0.54 0.46,-0.35 0.82,-0.83 1.1,-1.44 0.28,-0.61 0.48,-1.33 0.59,-2.14 0.12,-0.81 0.17,-1.68 0.17,-2.6z"/>
    <path id="16" class="fil19" d="M282.28 16.53c0,0.28 0,0.53 -0.02,0.73 -0.02,0.21 -0.04,0.38 -0.08,0.5 -0.03,0.13 -0.06,0.21 -0.11,0.26 -0.05,0.05 -0.1,0.07 -0.16,0.07 -0.09,0 -0.24,-0.09 -0.44,-0.27 -0.2,-0.17 -0.47,-0.37 -0.81,-0.58 -0.33,-0.2 -0.73,-0.4 -1.19,-0.58 -0.47,-0.17 -1,-0.26 -1.62,-0.26 -0.65,0 -1.24,0.16 -1.77,0.48 -0.53,0.32 -0.99,0.77 -1.36,1.36 -0.37,0.59 -0.66,1.29 -0.87,2.12 -0.2,0.82 -0.3,1.73 -0.3,2.73 0,1.09 0.1,2.06 0.31,2.89 0.2,0.84 0.49,1.53 0.86,2.1 0.37,0.56 0.82,0.98 1.33,1.27 0.53,0.29 1.1,0.43 1.72,0.43 0.31,0 0.61,-0.05 0.91,-0.15 0.31,-0.1 0.59,-0.25 0.84,-0.45l0 -4.46 -2.56 0c-0.12,0 -0.22,-0.11 -0.29,-0.33 -0.07,-0.22 -0.1,-0.6 -0.1,-1.13 0,-0.27 0.01,-0.51 0.02,-0.69 0.02,-0.19 0.05,-0.34 0.08,-0.45 0.04,-0.12 0.08,-0.2 0.13,-0.25 0.05,-0.06 0.1,-0.08 0.16,-0.08l4.57 0c0.11,0 0.21,0.02 0.3,0.08 0.09,0.05 0.16,0.13 0.23,0.24 0.06,0.11 0.12,0.24 0.15,0.39 0.03,0.16 0.05,0.34 0.05,0.53l0 7.63c0,0.3 -0.03,0.56 -0.11,0.78 -0.07,0.22 -0.22,0.4 -0.45,0.52 -0.22,0.13 -0.5,0.27 -0.84,0.41 -0.34,0.13 -0.68,0.25 -1.04,0.35 -0.36,0.1 -0.72,0.18 -1.09,0.22 -0.36,0.05 -0.73,0.08 -1.1,0.08 -1.08,0 -2.05,-0.22 -2.91,-0.66 -0.85,-0.44 -1.57,-1.08 -2.17,-1.91 -0.59,-0.83 -1.04,-1.85 -1.35,-3.05 -0.32,-1.2 -0.48,-2.56 -0.48,-4.08 0,-1.56 0.17,-2.97 0.51,-4.22 0.33,-1.25 0.8,-2.31 1.42,-3.18 0.61,-0.88 1.35,-1.54 2.22,-2.01 0.87,-0.46 1.83,-0.69 2.9,-0.69 0.59,0 1.12,0.05 1.6,0.17 0.48,0.12 0.9,0.25 1.26,0.42 0.35,0.16 0.65,0.34 0.89,0.52 0.24,0.19 0.4,0.36 0.5,0.5 0.09,0.13 0.16,0.33 0.2,0.58 0.04,0.25 0.06,0.62 0.06,1.12z"/>
    <path id="17" class="fil19" d="M287.83 32.15c0,0.1 -0.02,0.19 -0.07,0.27 -0.04,0.08 -0.12,0.14 -0.22,0.19 -0.11,0.05 -0.25,0.09 -0.42,0.12 -0.17,0.03 -0.4,0.05 -0.67,0.05 -0.26,0 -0.49,-0.02 -0.66,-0.05 -0.18,-0.03 -0.32,-0.07 -0.43,-0.12 -0.1,-0.05 -0.18,-0.11 -0.22,-0.19 -0.05,-0.08 -0.07,-0.17 -0.07,-0.27l0 -18.07c0,-0.09 0.02,-0.19 0.07,-0.27 0.04,-0.07 0.12,-0.14 0.23,-0.19 0.11,-0.05 0.25,-0.08 0.42,-0.11 0.17,-0.03 0.4,-0.05 0.66,-0.05 0.27,0 0.5,0.02 0.67,0.05 0.17,0.03 0.31,0.06 0.42,0.11 0.1,0.05 0.18,0.12 0.22,0.19 0.05,0.08 0.07,0.18 0.07,0.27l0 18.07z"/>
    <path id="18" class="fil19" d="M92.88 60.24c0,0.1 -0.01,0.19 -0.05,0.27 -0.04,0.07 -0.11,0.14 -0.21,0.19 -0.1,0.05 -0.24,0.09 -0.41,0.12 -0.16,0.03 -0.38,0.04 -0.63,0.04 -0.26,0 -0.47,-0.01 -0.64,-0.04 -0.16,-0.03 -0.3,-0.07 -0.4,-0.12 -0.09,-0.05 -0.16,-0.12 -0.2,-0.19 -0.05,-0.08 -0.07,-0.17 -0.07,-0.27l0 -15.58 -0.02 0 -3.9 15.57c-0.03,0.12 -0.08,0.23 -0.14,0.31 -0.06,0.09 -0.15,0.15 -0.26,0.21 -0.1,0.04 -0.24,0.08 -0.41,0.09 -0.16,0.02 -0.37,0.02 -0.6,0.02 -0.24,0 -0.44,-0.01 -0.61,-0.03 -0.17,-0.03 -0.31,-0.07 -0.41,-0.13 -0.11,-0.05 -0.2,-0.12 -0.26,-0.19 -0.06,-0.08 -0.1,-0.18 -0.13,-0.28l-3.77 -15.57 -0.02 0 0 15.58c0,0.1 -0.02,0.19 -0.05,0.27 -0.04,0.07 -0.12,0.14 -0.22,0.19 -0.11,0.05 -0.24,0.09 -0.41,0.12 -0.16,0.03 -0.37,0.04 -0.63,0.04 -0.25,0 -0.46,-0.01 -0.63,-0.04 -0.17,-0.03 -0.3,-0.07 -0.4,-0.12 -0.1,-0.05 -0.17,-0.12 -0.21,-0.19 -0.04,-0.08 -0.06,-0.17 -0.06,-0.27l0 -17.05c0,-0.5 0.09,-0.89 0.28,-1.15 0.19,-0.27 0.44,-0.4 0.76,-0.4l1.8 0c0.32,0 0.6,0.03 0.82,0.11 0.24,0.07 0.44,0.19 0.6,0.37 0.17,0.17 0.31,0.39 0.42,0.68 0.11,0.28 0.21,0.63 0.29,1.04l2.92 11.4 0.04 0 3.02 -11.37c0.09,-0.42 0.19,-0.76 0.3,-1.05 0.11,-0.28 0.23,-0.52 0.37,-0.69 0.15,-0.18 0.32,-0.31 0.51,-0.38 0.2,-0.08 0.42,-0.11 0.68,-0.11l1.86 0c0.19,0 0.35,0.03 0.48,0.1 0.14,0.07 0.25,0.17 0.34,0.31 0.09,0.13 0.15,0.29 0.2,0.48 0.04,0.19 0.06,0.41 0.06,0.66l0 17.05z"/>
    <path id="19" class="fil19" d="M106.92 59.32c0.08,0.36 0.13,0.64 0.15,0.85 0.02,0.2 0,0.36 -0.08,0.46 -0.08,0.11 -0.21,0.17 -0.41,0.2 -0.19,0.02 -0.46,0.03 -0.8,0.03 -0.36,0 -0.64,0 -0.83,-0.02 -0.2,-0.01 -0.35,-0.04 -0.46,-0.09 -0.1,-0.05 -0.17,-0.11 -0.22,-0.19 -0.04,-0.07 -0.08,-0.18 -0.1,-0.3l-0.89 -3.85 -5.1 0 -0.85 3.74c-0.03,0.14 -0.07,0.26 -0.11,0.35 -0.05,0.09 -0.12,0.16 -0.22,0.22 -0.1,0.06 -0.24,0.09 -0.43,0.11 -0.19,0.02 -0.43,0.03 -0.73,0.03 -0.32,0 -0.57,-0.01 -0.75,-0.04 -0.18,-0.03 -0.31,-0.1 -0.38,-0.22 -0.07,-0.11 -0.09,-0.27 -0.07,-0.48 0.02,-0.21 0.07,-0.48 0.16,-0.83l4.16 -16.98c0.04,-0.16 0.09,-0.3 0.15,-0.4 0.05,-0.11 0.14,-0.18 0.26,-0.24 0.13,-0.05 0.3,-0.09 0.51,-0.1 0.22,-0.02 0.5,-0.02 0.86,-0.02 0.41,0 0.74,0 0.98,0.02 0.25,0.01 0.44,0.05 0.57,0.1 0.14,0.06 0.23,0.14 0.29,0.24 0.06,0.12 0.12,0.26 0.15,0.45l4.19 16.96zm-6.21 -14.04l-0.01 0 -1.89 8.13 3.8 0 -1.9 -8.13z"/>
    <path id="20" class="fil19" d="M118.85 60.27c0,0.11 -0.02,0.2 -0.04,0.27 -0.03,0.08 -0.1,0.14 -0.2,0.19 -0.11,0.05 -0.26,0.08 -0.46,0.1 -0.2,0.02 -0.48,0.03 -0.82,0.03 -0.3,0 -0.53,-0.01 -0.7,-0.03 -0.18,-0.02 -0.32,-0.05 -0.42,-0.11 -0.1,-0.06 -0.17,-0.12 -0.21,-0.21 -0.04,-0.08 -0.08,-0.18 -0.1,-0.3l-1.22 -4.28c-0.15,-0.49 -0.29,-0.92 -0.43,-1.3 -0.14,-0.37 -0.3,-0.69 -0.47,-0.94 -0.17,-0.25 -0.37,-0.44 -0.6,-0.57 -0.22,-0.12 -0.48,-0.19 -0.77,-0.19l-0.86 0 0 7.31c0,0.1 -0.02,0.19 -0.07,0.26 -0.04,0.08 -0.12,0.15 -0.22,0.2 -0.11,0.05 -0.25,0.09 -0.42,0.12 -0.17,0.03 -0.4,0.04 -0.66,0.04 -0.27,0 -0.49,-0.01 -0.67,-0.04 -0.18,-0.03 -0.31,-0.07 -0.42,-0.12 -0.1,-0.05 -0.18,-0.12 -0.22,-0.19 -0.04,-0.08 -0.06,-0.17 -0.06,-0.27l0 -17.38c0,-0.43 0.08,-0.74 0.24,-0.94 0.15,-0.19 0.35,-0.28 0.57,-0.28l3.51 0c0.35,0 0.65,0.01 0.87,0.03 0.23,0.02 0.44,0.04 0.63,0.07 0.54,0.11 1.03,0.3 1.47,0.56 0.43,0.27 0.8,0.61 1.11,1.04 0.3,0.43 0.53,0.94 0.69,1.52 0.16,0.59 0.24,1.26 0.24,2.02 0,0.64 -0.05,1.22 -0.17,1.75 -0.12,0.53 -0.28,0.99 -0.51,1.41 -0.22,0.41 -0.49,0.77 -0.82,1.07 -0.33,0.31 -0.71,0.55 -1.12,0.74 0.2,0.14 0.39,0.31 0.57,0.5 0.18,0.2 0.34,0.44 0.5,0.73 0.16,0.28 0.31,0.6 0.45,0.96 0.14,0.36 0.27,0.77 0.4,1.22l1.15 3.78c0.1,0.37 0.17,0.65 0.21,0.82 0.03,0.17 0.05,0.31 0.05,0.41zm-3.55 -12.99c0,-0.63 -0.1,-1.17 -0.31,-1.6 -0.2,-0.43 -0.53,-0.74 -0.99,-0.91 -0.14,-0.05 -0.3,-0.09 -0.48,-0.12 -0.18,-0.03 -0.42,-0.05 -0.74,-0.05l-1.23 0 0 5.42 1.4 0c0.39,0 0.73,-0.06 1.03,-0.2 0.29,-0.13 0.53,-0.32 0.73,-0.56 0.2,-0.24 0.34,-0.53 0.44,-0.86 0.1,-0.33 0.15,-0.71 0.15,-1.12z"/>
    <path id="21" class="fil19" d="M123.62 60.24c0,0.1 -0.02,0.19 -0.07,0.27 -0.04,0.07 -0.12,0.14 -0.22,0.19 -0.1,0.05 -0.25,0.09 -0.42,0.12 -0.17,0.03 -0.4,0.04 -0.67,0.04 -0.26,0 -0.48,-0.01 -0.66,-0.04 -0.18,-0.03 -0.32,-0.07 -0.43,-0.12 -0.1,-0.05 -0.17,-0.12 -0.22,-0.19 -0.05,-0.08 -0.07,-0.17 -0.07,-0.27l0 -18.07c0,-0.1 0.02,-0.19 0.07,-0.27 0.05,-0.08 0.12,-0.14 0.23,-0.19 0.11,-0.05 0.25,-0.09 0.42,-0.12 0.18,-0.03 0.4,-0.04 0.66,-0.04 0.27,0 0.5,0.01 0.67,0.04 0.17,0.03 0.32,0.07 0.42,0.12 0.1,0.05 0.18,0.11 0.22,0.19 0.05,0.08 0.07,0.17 0.07,0.27l0 18.07z"/>
    <path id="22" class="fil19" d="M135.56 43.23c0,0.29 -0.01,0.53 -0.03,0.74 -0.01,0.2 -0.04,0.36 -0.07,0.48 -0.04,0.13 -0.08,0.22 -0.14,0.28 -0.05,0.06 -0.11,0.09 -0.17,0.09l-3.38 0 0 15.42c0,0.1 -0.02,0.19 -0.07,0.27 -0.04,0.07 -0.12,0.14 -0.22,0.19 -0.11,0.05 -0.25,0.09 -0.43,0.12 -0.17,0.03 -0.4,0.04 -0.66,0.04 -0.26,0 -0.49,-0.01 -0.66,-0.04 -0.18,-0.03 -0.32,-0.07 -0.43,-0.12 -0.1,-0.05 -0.18,-0.12 -0.22,-0.19 -0.05,-0.08 -0.07,-0.17 -0.07,-0.27l0 -15.42 -3.38 0c-0.07,0 -0.13,-0.03 -0.18,-0.09 -0.05,-0.06 -0.09,-0.15 -0.13,-0.28 -0.03,-0.12 -0.06,-0.28 -0.07,-0.48 -0.02,-0.21 -0.03,-0.45 -0.03,-0.74 0,-0.29 0.01,-0.54 0.03,-0.75 0.01,-0.21 0.04,-0.37 0.07,-0.49 0.04,-0.13 0.08,-0.22 0.13,-0.27 0.05,-0.06 0.11,-0.08 0.18,-0.08l9.52 0c0.06,0 0.12,0.02 0.17,0.08 0.06,0.05 0.1,0.14 0.14,0.27 0.03,0.12 0.06,0.28 0.07,0.49 0.02,0.21 0.03,0.46 0.03,0.75z"/>
    <path id="23" class="fil19" d="M139.93 60.24c0,0.1 -0.02,0.19 -0.07,0.27 -0.04,0.07 -0.12,0.14 -0.22,0.19 -0.11,0.05 -0.25,0.09 -0.42,0.12 -0.18,0.03 -0.4,0.04 -0.67,0.04 -0.27,0 -0.49,-0.01 -0.66,-0.04 -0.18,-0.03 -0.33,-0.07 -0.43,-0.12 -0.1,-0.05 -0.18,-0.12 -0.22,-0.19 -0.05,-0.08 -0.07,-0.17 -0.07,-0.27l0 -18.07c0,-0.1 0.02,-0.19 0.07,-0.27 0.04,-0.08 0.12,-0.14 0.23,-0.19 0.1,-0.05 0.24,-0.09 0.42,-0.12 0.17,-0.03 0.39,-0.04 0.66,-0.04 0.27,0 0.49,0.01 0.67,0.04 0.17,0.03 0.31,0.07 0.42,0.12 0.1,0.05 0.18,0.11 0.22,0.19 0.05,0.08 0.07,0.17 0.07,0.27l0 18.07z"/>
    <path id="24" class="fil19" d="M158.63 60.24c0,0.1 -0.02,0.19 -0.06,0.27 -0.04,0.07 -0.11,0.14 -0.21,0.19 -0.1,0.05 -0.23,0.09 -0.4,0.12 -0.17,0.03 -0.38,0.04 -0.64,0.04 -0.25,0 -0.46,-0.01 -0.63,-0.04 -0.17,-0.03 -0.3,-0.07 -0.4,-0.12 -0.1,-0.05 -0.17,-0.12 -0.21,-0.19 -0.04,-0.08 -0.06,-0.17 -0.06,-0.27l0 -15.58 -0.02 0 -3.91 15.57c-0.03,0.12 -0.07,0.23 -0.13,0.31 -0.07,0.09 -0.15,0.15 -0.26,0.21 -0.11,0.04 -0.25,0.08 -0.41,0.09 -0.17,0.02 -0.37,0.02 -0.61,0.02 -0.24,0 -0.44,-0.01 -0.6,-0.03 -0.17,-0.03 -0.31,-0.07 -0.42,-0.13 -0.11,-0.05 -0.19,-0.12 -0.26,-0.19 -0.06,-0.08 -0.1,-0.18 -0.12,-0.28l-3.77 -15.57 -0.02 0 0 15.58c0,0.1 -0.02,0.19 -0.06,0.27 -0.04,0.07 -0.11,0.14 -0.21,0.19 -0.11,0.05 -0.25,0.09 -0.41,0.12 -0.16,0.03 -0.37,0.04 -0.63,0.04 -0.26,0 -0.47,-0.01 -0.63,-0.04 -0.17,-0.03 -0.31,-0.07 -0.41,-0.12 -0.1,-0.05 -0.17,-0.12 -0.21,-0.19 -0.04,-0.08 -0.05,-0.17 -0.05,-0.27l0 -17.05c0,-0.5 0.09,-0.89 0.28,-1.15 0.19,-0.27 0.44,-0.4 0.75,-0.4l1.8 0c0.32,0 0.6,0.03 0.83,0.11 0.23,0.07 0.43,0.19 0.6,0.37 0.16,0.17 0.31,0.39 0.42,0.68 0.11,0.28 0.21,0.63 0.29,1.04l2.91 11.4 0.05 0 3.01 -11.37c0.09,-0.42 0.19,-0.76 0.3,-1.05 0.11,-0.28 0.24,-0.52 0.38,-0.69 0.14,-0.18 0.31,-0.31 0.51,-0.38 0.19,-0.08 0.42,-0.11 0.68,-0.11l1.85 0c0.19,0 0.35,0.03 0.49,0.1 0.13,0.07 0.25,0.17 0.33,0.31 0.09,0.13 0.16,0.29 0.2,0.48 0.05,0.19 0.07,0.41 0.07,0.66l0 17.05z"/>
    <path id="25" class="fil19" d="M175.69 47.45c0,1.08 -0.12,2.03 -0.36,2.86 -0.23,0.83 -0.58,1.52 -1.03,2.09 -0.46,0.57 -1.01,1 -1.67,1.3 -0.66,0.29 -1.44,0.44 -2.34,0.44l-1.13 0 0 6.1c0,0.1 -0.02,0.19 -0.07,0.27 -0.04,0.07 -0.12,0.14 -0.22,0.19 -0.1,0.05 -0.24,0.09 -0.42,0.12 -0.17,0.03 -0.39,0.04 -0.66,0.04 -0.27,0 -0.49,-0.01 -0.67,-0.04 -0.17,-0.03 -0.31,-0.07 -0.42,-0.12 -0.1,-0.05 -0.17,-0.12 -0.21,-0.19 -0.05,-0.08 -0.07,-0.17 -0.07,-0.27l0 -17.21c0,-0.46 0.09,-0.81 0.26,-1.04 0.17,-0.24 0.39,-0.35 0.67,-0.35l3.19 0c0.32,0 0.63,0.01 0.92,0.05 0.29,0.03 0.63,0.11 1.04,0.22 0.4,0.12 0.81,0.32 1.23,0.63 0.41,0.3 0.77,0.69 1.06,1.16 0.29,0.47 0.52,1.02 0.67,1.65 0.16,0.62 0.23,1.32 0.23,2.1zm-2.87 0.28c0,-0.67 -0.08,-1.22 -0.25,-1.66 -0.17,-0.43 -0.38,-0.75 -0.62,-0.96 -0.25,-0.21 -0.51,-0.34 -0.77,-0.39 -0.27,-0.06 -0.55,-0.09 -0.84,-0.09l-1.18 0 0 6.51 1.24 0c0.45,0 0.81,-0.08 1.11,-0.25 0.3,-0.17 0.54,-0.4 0.73,-0.71 0.19,-0.29 0.34,-0.66 0.44,-1.08 0.09,-0.41 0.14,-0.87 0.14,-1.37z"/>
    <path id="26" class="fil19" d="M189.97 50.98c0,1.59 -0.14,3 -0.42,4.26 -0.27,1.25 -0.69,2.31 -1.24,3.18 -0.55,0.87 -1.23,1.54 -2.04,2 -0.82,0.46 -1.75,0.68 -2.82,0.68 -1.05,0 -1.97,-0.19 -2.75,-0.58 -0.79,-0.39 -1.44,-0.98 -1.96,-1.78 -0.52,-0.8 -0.92,-1.81 -1.18,-3.05 -0.26,-1.23 -0.39,-2.68 -0.39,-4.37 0,-1.54 0.14,-2.94 0.42,-4.17 0.28,-1.24 0.69,-2.29 1.24,-3.16 0.55,-0.86 1.23,-1.53 2.04,-1.99 0.82,-0.46 1.76,-0.7 2.83,-0.7 1.03,0 1.93,0.2 2.71,0.58 0.79,0.38 1.44,0.97 1.97,1.78 0.52,0.79 0.92,1.8 1.19,3.01 0.27,1.22 0.4,2.66 0.4,4.31zm-2.89 0.2c0,-1.01 -0.06,-1.92 -0.17,-2.74 -0.11,-0.82 -0.3,-1.53 -0.56,-2.12 -0.27,-0.58 -0.63,-1.03 -1.07,-1.36 -0.45,-0.32 -1.01,-0.48 -1.67,-0.48 -0.68,0 -1.24,0.18 -1.69,0.54 -0.45,0.36 -0.82,0.85 -1.1,1.45 -0.28,0.6 -0.47,1.3 -0.59,2.1 -0.11,0.81 -0.17,1.65 -0.17,2.55 0,1.05 0.06,1.99 0.17,2.82 0.11,0.83 0.3,1.54 0.56,2.14 0.27,0.59 0.62,1.04 1.06,1.35 0.45,0.31 1.01,0.46 1.68,0.46 0.68,0 1.24,-0.17 1.69,-0.53 0.46,-0.35 0.82,-0.84 1.1,-1.45 0.28,-0.61 0.48,-1.32 0.59,-2.13 0.11,-0.82 0.17,-1.68 0.17,-2.6z"/>
    <path id="27" class="fil19" d="M203.44 59.41c0,0.23 -0.03,0.43 -0.08,0.61 -0.06,0.18 -0.13,0.32 -0.23,0.44 -0.09,0.12 -0.2,0.2 -0.33,0.26 -0.13,0.06 -0.26,0.08 -0.39,0.08l-1.18 0c-0.24,0 -0.45,-0.03 -0.63,-0.1 -0.18,-0.07 -0.34,-0.2 -0.49,-0.38 -0.15,-0.18 -0.3,-0.43 -0.44,-0.74 -0.13,-0.31 -0.29,-0.71 -0.47,-1.21l-3.35 -8.94c-0.2,-0.54 -0.4,-1.11 -0.6,-1.73 -0.2,-0.61 -0.38,-1.21 -0.54,-1.79l-0.02 0c0.03,0.71 0.05,1.41 0.06,2.12 0.02,0.7 0.02,1.43 0.02,2.18l0 10.02c0,0.09 -0.02,0.18 -0.05,0.26 -0.04,0.08 -0.11,0.14 -0.2,0.2 -0.1,0.06 -0.23,0.1 -0.39,0.13 -0.16,0.03 -0.36,0.04 -0.61,0.04 -0.25,0 -0.45,-0.01 -0.61,-0.04 -0.16,-0.03 -0.29,-0.07 -0.38,-0.13 -0.09,-0.05 -0.15,-0.12 -0.19,-0.2 -0.03,-0.08 -0.05,-0.17 -0.05,-0.26l0 -17.2c0,-0.46 0.1,-0.81 0.29,-1.04 0.19,-0.24 0.42,-0.35 0.7,-0.35l1.48 0c0.26,0 0.49,0.03 0.67,0.09 0.18,0.07 0.34,0.17 0.48,0.32 0.15,0.15 0.28,0.35 0.41,0.62 0.12,0.25 0.25,0.58 0.38,0.97l2.63 6.99c0.16,0.43 0.3,0.85 0.45,1.26 0.15,0.4 0.3,0.81 0.44,1.22 0.14,0.41 0.27,0.81 0.4,1.21 0.14,0.4 0.27,0.79 0.39,1.18l0.01 0c-0.02,-0.69 -0.04,-1.41 -0.05,-2.16 -0.01,-0.75 -0.01,-1.47 -0.01,-2.15l0 -8.98c0,-0.09 0.02,-0.18 0.06,-0.27 0.04,-0.07 0.11,-0.14 0.21,-0.2 0.1,-0.06 0.23,-0.1 0.39,-0.13 0.16,-0.02 0.37,-0.03 0.62,-0.03 0.23,0 0.43,0.01 0.6,0.03 0.16,0.03 0.28,0.07 0.37,0.13 0.08,0.06 0.15,0.13 0.18,0.2 0.03,0.09 0.05,0.17 0.05,0.27l0 17.2z"/>
    <path id="28" class="fil19" d="M215.38 43.23c0,0.29 -0.01,0.53 -0.03,0.74 -0.01,0.2 -0.04,0.36 -0.08,0.48 -0.03,0.13 -0.07,0.22 -0.13,0.28 -0.05,0.06 -0.11,0.09 -0.17,0.09l-3.38 0 0 15.42c0,0.1 -0.02,0.19 -0.07,0.27 -0.04,0.07 -0.12,0.14 -0.22,0.19 -0.11,0.05 -0.25,0.09 -0.43,0.12 -0.18,0.03 -0.4,0.04 -0.66,0.04 -0.26,0 -0.49,-0.01 -0.66,-0.04 -0.18,-0.03 -0.33,-0.07 -0.43,-0.12 -0.1,-0.05 -0.18,-0.12 -0.22,-0.19 -0.05,-0.08 -0.07,-0.17 -0.07,-0.27l0 -15.42 -3.38 0c-0.07,0 -0.13,-0.03 -0.18,-0.09 -0.05,-0.06 -0.09,-0.15 -0.13,-0.28 -0.03,-0.12 -0.06,-0.28 -0.08,-0.48 -0.01,-0.21 -0.02,-0.45 -0.02,-0.74 0,-0.29 0.01,-0.54 0.02,-0.75 0.02,-0.21 0.05,-0.37 0.08,-0.49 0.04,-0.13 0.08,-0.22 0.13,-0.27 0.05,-0.06 0.11,-0.08 0.18,-0.08l9.52 0c0.06,0 0.12,0.02 0.17,0.08 0.06,0.05 0.1,0.14 0.13,0.27 0.04,0.12 0.07,0.28 0.08,0.49 0.02,0.21 0.03,0.46 0.03,0.75z"/>
    <path id="29" class="fil19" d="M219.75 60.24c0,0.1 -0.02,0.19 -0.07,0.27 -0.05,0.07 -0.12,0.14 -0.22,0.19 -0.11,0.05 -0.25,0.09 -0.42,0.12 -0.18,0.03 -0.4,0.04 -0.67,0.04 -0.27,0 -0.49,-0.01 -0.67,-0.04 -0.17,-0.03 -0.32,-0.07 -0.42,-0.12 -0.1,-0.05 -0.18,-0.12 -0.22,-0.19 -0.05,-0.08 -0.07,-0.17 -0.07,-0.27l0 -18.07c0,-0.1 0.02,-0.19 0.07,-0.27 0.04,-0.08 0.12,-0.14 0.23,-0.19 0.1,-0.05 0.24,-0.09 0.42,-0.12 0.17,-0.03 0.39,-0.04 0.66,-0.04 0.27,0 0.49,0.01 0.67,0.04 0.17,0.03 0.31,0.07 0.42,0.12 0.1,0.05 0.17,0.11 0.22,0.19 0.05,0.08 0.07,0.17 0.07,0.27l0 18.07z"/>
    <path id="30" class="fil19" d="M233.77 59.32c0.08,0.36 0.14,0.64 0.16,0.85 0.02,0.2 -0.01,0.36 -0.08,0.46 -0.08,0.11 -0.22,0.17 -0.41,0.2 -0.2,0.02 -0.47,0.03 -0.81,0.03 -0.35,0 -0.63,0 -0.83,-0.02 -0.2,-0.01 -0.35,-0.04 -0.45,-0.09 -0.11,-0.05 -0.18,-0.11 -0.22,-0.19 -0.04,-0.07 -0.08,-0.18 -0.1,-0.3l-0.89 -3.85 -5.1 0 -0.86 3.74c-0.03,0.14 -0.06,0.26 -0.11,0.35 -0.04,0.09 -0.12,0.16 -0.22,0.22 -0.1,0.06 -0.24,0.09 -0.42,0.11 -0.19,0.02 -0.43,0.03 -0.73,0.03 -0.32,0 -0.57,-0.01 -0.75,-0.04 -0.19,-0.03 -0.31,-0.1 -0.38,-0.22 -0.07,-0.11 -0.09,-0.27 -0.07,-0.48 0.02,-0.21 0.07,-0.48 0.15,-0.83l4.17 -16.98c0.04,-0.16 0.09,-0.3 0.15,-0.4 0.05,-0.11 0.14,-0.18 0.26,-0.24 0.13,-0.05 0.29,-0.09 0.51,-0.1 0.21,-0.02 0.5,-0.02 0.86,-0.02 0.41,0 0.74,0 0.98,0.02 0.24,0.01 0.43,0.05 0.57,0.1 0.13,0.06 0.23,0.14 0.29,0.24 0.06,0.12 0.11,0.26 0.15,0.45l4.18 16.96zm-6.2 -14.04l-0.02 0 -1.88 8.13 3.8 0 -1.9 -8.13z"/>
    <path id="31" class="fil19" d="M246.82 59.41c0,0.23 -0.03,0.43 -0.08,0.61 -0.06,0.18 -0.14,0.32 -0.23,0.44 -0.09,0.12 -0.21,0.2 -0.33,0.26 -0.14,0.06 -0.26,0.08 -0.4,0.08l-1.17 0c-0.25,0 -0.46,-0.03 -0.63,-0.1 -0.18,-0.07 -0.34,-0.2 -0.49,-0.38 -0.16,-0.18 -0.3,-0.43 -0.44,-0.74 -0.14,-0.31 -0.29,-0.71 -0.47,-1.21l-3.36 -8.94c-0.19,-0.54 -0.39,-1.11 -0.59,-1.73 -0.21,-0.61 -0.38,-1.21 -0.54,-1.79l-0.03 0c0.03,0.71 0.05,1.41 0.07,2.12 0.01,0.7 0.02,1.43 0.02,2.18l0 10.02c0,0.09 -0.02,0.18 -0.06,0.26 -0.04,0.08 -0.1,0.14 -0.2,0.2 -0.09,0.06 -0.22,0.1 -0.38,0.13 -0.16,0.03 -0.37,0.04 -0.62,0.04 -0.24,0 -0.45,-0.01 -0.61,-0.04 -0.16,-0.03 -0.28,-0.07 -0.37,-0.13 -0.09,-0.05 -0.16,-0.12 -0.19,-0.2 -0.04,-0.08 -0.05,-0.17 -0.05,-0.26l0 -17.2c0,-0.46 0.09,-0.81 0.29,-1.04 0.18,-0.24 0.42,-0.35 0.7,-0.35l1.48 0c0.26,0 0.48,0.03 0.67,0.09 0.18,0.07 0.34,0.17 0.48,0.32 0.14,0.15 0.28,0.35 0.4,0.62 0.13,0.25 0.26,0.58 0.39,0.97l2.63 6.99c0.15,0.43 0.3,0.85 0.45,1.26 0.15,0.4 0.3,0.81 0.43,1.22 0.14,0.41 0.28,0.81 0.41,1.21 0.14,0.4 0.26,0.79 0.39,1.18l0.01 0c-0.02,-0.69 -0.04,-1.41 -0.05,-2.16 -0.01,-0.75 -0.01,-1.47 -0.01,-2.15l0 -8.98c0,-0.09 0.02,-0.18 0.06,-0.27 0.04,-0.07 0.11,-0.14 0.21,-0.2 0.1,-0.06 0.23,-0.1 0.39,-0.13 0.16,-0.02 0.36,-0.03 0.61,-0.03 0.24,0 0.44,0.01 0.6,0.03 0.16,0.03 0.28,0.07 0.37,0.13 0.09,0.06 0.15,0.13 0.19,0.2 0.03,0.09 0.05,0.17 0.05,0.27l0 17.2z"/>
    <path id="32" class="fil19" d="M260.84 59.32c0.08,0.36 0.14,0.64 0.16,0.85 0.02,0.2 -0.01,0.36 -0.08,0.46 -0.08,0.11 -0.22,0.17 -0.41,0.2 -0.2,0.02 -0.47,0.03 -0.81,0.03 -0.35,0 -0.63,0 -0.83,-0.02 -0.2,-0.01 -0.35,-0.04 -0.45,-0.09 -0.11,-0.05 -0.18,-0.11 -0.22,-0.19 -0.04,-0.07 -0.08,-0.18 -0.1,-0.3l-0.89 -3.85 -5.1 0 -0.86 3.74c-0.03,0.14 -0.06,0.26 -0.11,0.35 -0.04,0.09 -0.12,0.16 -0.22,0.22 -0.09,0.06 -0.24,0.09 -0.42,0.11 -0.19,0.02 -0.43,0.03 -0.73,0.03 -0.32,0 -0.57,-0.01 -0.75,-0.04 -0.19,-0.03 -0.31,-0.1 -0.38,-0.22 -0.07,-0.11 -0.09,-0.27 -0.07,-0.48 0.02,-0.21 0.07,-0.48 0.15,-0.83l4.17 -16.98c0.04,-0.16 0.09,-0.3 0.15,-0.4 0.05,-0.11 0.14,-0.18 0.26,-0.24 0.13,-0.05 0.29,-0.09 0.51,-0.1 0.22,-0.02 0.5,-0.02 0.86,-0.02 0.41,0 0.74,0 0.98,0.02 0.24,0.01 0.43,0.05 0.57,0.1 0.13,0.06 0.23,0.14 0.29,0.24 0.06,0.12 0.11,0.26 0.15,0.45l4.18 16.96zm-6.2 -14.04l-0.02 0 -1.88 8.13 3.8 0 -1.9 -8.13z"/>
    <path id="33" class="fil19" d="M272.6 60.2c0,0.11 -0.01,0.2 -0.05,0.28 -0.04,0.09 -0.11,0.15 -0.22,0.21 -0.11,0.06 -0.26,0.1 -0.45,0.13 -0.19,0.03 -0.42,0.04 -0.71,0.04 -0.45,0 -0.77,-0.02 -0.97,-0.07 -0.2,-0.05 -0.35,-0.13 -0.43,-0.23 -0.09,-0.09 -0.15,-0.21 -0.2,-0.35l-4.09 -9.08 0 9.08c0,0.11 -0.02,0.2 -0.07,0.28 -0.04,0.08 -0.11,0.15 -0.22,0.2 -0.1,0.06 -0.24,0.1 -0.41,0.13 -0.17,0.03 -0.4,0.04 -0.67,0.04 -0.26,0 -0.48,-0.01 -0.66,-0.04 -0.18,-0.03 -0.32,-0.07 -0.42,-0.13 -0.1,-0.06 -0.18,-0.12 -0.23,-0.2 -0.04,-0.08 -0.06,-0.17 -0.06,-0.28l0 -18.03c0,-0.11 0.02,-0.2 0.06,-0.28 0.05,-0.08 0.13,-0.14 0.23,-0.19 0.1,-0.05 0.24,-0.09 0.42,-0.12 0.18,-0.03 0.4,-0.04 0.66,-0.04 0.27,0 0.5,0.01 0.67,0.04 0.17,0.03 0.31,0.07 0.41,0.12 0.11,0.05 0.18,0.11 0.22,0.19 0.05,0.08 0.07,0.17 0.07,0.28l0 8.15 3.96 -8.13c0.05,-0.13 0.1,-0.23 0.18,-0.32 0.06,-0.09 0.16,-0.15 0.27,-0.2 0.11,-0.05 0.25,-0.08 0.42,-0.1 0.18,-0.02 0.4,-0.03 0.67,-0.03 0.28,0 0.51,0.01 0.69,0.04 0.18,0.03 0.32,0.07 0.44,0.13 0.1,0.05 0.18,0.12 0.22,0.19 0.04,0.09 0.06,0.17 0.06,0.27 0,0.17 -0.03,0.34 -0.09,0.52 -0.07,0.18 -0.18,0.46 -0.36,0.84l-3.7 6.88 4.04 8.65c0.15,0.4 0.25,0.68 0.28,0.81 0.03,0.13 0.04,0.23 0.04,0.32z"/>
   </g>
   <g>
    <path class="fil20" d="M5.13 12.75c-0.42,0.27 -0.64,0.87 -0.94,1.37 -0.32,0.55 -0.64,0.96 -0.77,1.59l10.29 0.01c-0.51,0.99 -1.32,1.75 -1.72,3.06 -0.74,-0.03 -1.45,-0.7 -2.27,-1.05 -4.03,-1.72 -6.5,0.57 -7.73,1.05 -1.03,2.19 -1.99,6.92 -1.99,10.24l56.7 0c0,-1.18 -0.05,-2.53 -0.31,-3.68 -0.01,-0.04 -0.03,-0.09 -0.04,-0.12l-0.07 -0.23 -4.4 -0.02 -0.56 -1.19 4.81 -0.01c-0.05,-0.54 -0.12,-0.31 -0.14,-0.95l-5.28 -0.01c-0.92,-0.11 -1.62,-1.42 -4.07,-1.14 -1.25,0.14 -1.63,0.64 -2.48,0.98l-0.79 -1.95 12.05 -0.01c-0.28,-0.55 -0.4,-1.29 -0.71,-1.9 -3.99,0 -7.99,-0.03 -11.97,0.01 -1.6,0.01 -1.12,-0.19 -2.27,-0.75 -0.7,-0.35 -1.54,-0.6 -2.42,-0.66 -2.72,-0.19 -3.89,1.18 -4.73,1.39 -0.4,-1.32 -1.21,-2.07 -1.72,-3.07l21.68 0c-0.13,-0.63 -0.45,-1.04 -0.77,-1.59 -0.29,-0.5 -0.52,-1.1 -0.94,-1.37 -4.08,0 -8.16,0 -12.25,0 -2.16,0 -10.65,0.34 -12.01,-0.29 -2.59,-1.19 -4.99,-1.33 -7.75,-0.57 -0.71,0.2 -1.66,0.7 -2.2,0.82 -0.81,0.16 -10.53,0.04 -12.23,0.04z"/>
    <path class="fil20" d="M0.43 33.9l13.84 0.01c0.29,0.53 0.65,0.7 0.98,1.22l-14.68 0c0.05,0.53 0.13,0.31 0.14,0.95 4.7,0 9.41,0.03 14.11,0 1.82,-0.01 1.5,0.06 2.44,1.04 1.05,1.11 0.71,0.86 2.69,0.86l35.47 0c0.3,-0.51 0.73,-2.82 0.86,-3.65 0.24,-1.48 0.42,-2.53 0.42,-4.3l-56.7 0c0,1.12 0.07,2.45 0.32,3.53l0.11 0.34z"/>
    <path class="fil21" d="M5.13 46.14c0.41,0.9 0.88,1.35 1.44,2.08 0.34,0.43 0.44,0.54 0.8,0.95 0.39,0.43 0.42,0.67 0.89,1l21.52 0 -2.76 -2.91 23.84 -0.05c0.24,-0.19 0.83,-1.07 1.06,-1.42 0.37,-0.57 0.62,-1.11 0.94,-1.66l-28.87 0.03c0.46,0.62 1.44,1.36 1.77,1.98l-20.63 0z"/>
    <path class="fil22" d="M5.13 12.75c1.7,0 11.42,0.12 12.23,-0.04 0.54,-0.12 1.49,-0.62 2.2,-0.82 2.76,-0.76 5.16,-0.62 7.75,0.57 1.36,0.63 9.85,0.29 12.01,0.29 4.09,0 8.17,0 12.25,0 -0.41,-0.89 -0.87,-1.34 -1.44,-2.07 -0.33,-0.43 -0.44,-0.55 -0.8,-0.95 -0.39,-0.43 -0.42,-0.67 -0.89,-1l-40.18 0c-0.49,0.34 -0.44,0.48 -0.82,0.92 -0.34,0.4 -0.46,0.48 -0.8,0.94 -0.6,0.79 -1.08,1.22 -1.51,2.16z"/>
    <path class="fil21" d="M12.82 54.07l2.88 1.69c4.14,2.05 10.27,3.83 15.02,3.08 1.32,-0.21 5.23,-0.8 6.18,-1.4l-3.11 -3.25 9.81 0c0.52,-0.2 0.85,-0.57 1.31,-0.89 0.7,-0.49 3.17,-2.58 3.53,-3.13l-18.66 0c0.69,0.92 3.18,3.14 3.6,3.9l-20.56 0z"/>
    <path class="fil20" d="M8.26 8.73l40.18 0c-0.31,-0.47 -2.71,-2.54 -3.28,-2.96 -0.44,-0.32 -0.81,-0.58 -1.28,-0.94l-31.06 0 -4.56 3.9z"/>
    <path class="fil21" d="M3.42 43.18l19.6 0 -0.76 -0.9 31.59 -0.05c0.27,-0.64 0.7,-1.41 0.86,-2.13l-52.72 0 1.43 3.08z"/>
    <path class="fil20" d="M3.42 43.18c0.13,0.64 0.45,1.04 0.77,1.59 0.3,0.51 0.52,1.11 0.94,1.37l20.63 0c-0.33,-0.62 -1.31,-1.36 -1.77,-1.98l28.87 -0.03c0.25,-0.35 0.31,-0.56 0.52,-0.96 0.14,-0.27 0.14,-0.24 0.26,-0.48 0.14,-0.27 0.06,-0.2 0.21,-0.46l-31.59 0.05 0.76 0.9 -19.6 0z"/>
    <path class="fil22" d="M12.82 4.83l31.06 0c-4.99,-3.03 -9.22,-4.83 -15.53,-4.83 -3.46,0 -7.82,0.87 -10.49,2.12 -2.58,1.2 -2.65,1.26 -5.04,2.71z"/>
    <g id="bmkg">
     <path class="fil23" d="M14.67 60.97l0 12.73c0,0.71 1.04,0.44 2.85,0.44l0.15 -8.44c0.02,0.04 0.04,0.05 0.04,0.1 0.01,0.06 0.04,0.08 0.05,0.11 0.28,0.75 -0.17,-0.57 0.08,0.21l1.82 8.02 2.99 0c0,-1.01 0.66,-3.17 0.91,-4.23l1 -4c0.01,-0.03 0.03,-0.08 0.04,-0.11 0.01,-0.02 0.03,-0.06 0.05,-0.1 0,2.97 0.14,5.45 0.14,8.44 1.81,0 2.85,0.27 2.85,-0.44l0 -12.73c0,-0.34 -0.1,-0.44 -0.43,-0.44l-3.99 0 -2.13 8.43c-0.02,-0.72 -1.54,-6.19 -1.85,-7.55 -0.28,-1.23 -0.11,-0.88 -4.14,-0.88 -0.33,0 -0.43,0.1 -0.43,0.44z"/>
     <path class="fil23" d="M5.56 71.62l-1.29 0 0 -3.25c0.91,0 3.89,0.04 4.37,0.34 0.9,0.56 1.08,2.67 -0.66,2.77 -0.91,0.05 -1.39,0.14 -2.42,0.14zm-0.72 -5.77l-0.57 0 0 -2.81 3 0.15c1.16,0.03 1.56,0.24 1.56,1.33 0,0.93 -0.54,1.16 -1.42,1.19 -0.92,0.03 -1.49,0.14 -2.57,0.14zm-3.56 8.29l7.27 0c4.57,0 4.9,-6.36 1.85,-7.1 0.19,-0.73 1.43,-1.17 1.43,-2.96 0,-1.03 -0.57,-2.04 -1.11,-2.56 -0.58,-0.56 -1.53,-0.99 -2.6,-0.99l-6.84 0 0 13.61z"/>
     <path class="fil23" d="M43.17 66.44c0,2.27 0.02,4.08 1.72,5.91 2.25,2.41 5.71,2.36 8.52,1.18 2.79,-1.18 2.15,-1.62 2.15,-6.35 0,-0.34 -0.1,-0.44 -0.42,-0.44l-5.56 0 0 2.52 2.99 0c0,0.89 0.31,1.68 -1.77,2.16 -5.7,1.31 -5.85,-7.17 -2.29,-8.16 1.94,-0.55 3.54,0.3 3.92,2l2.29 -0.28c0.67,-0.16 0.19,0.21 0.56,-0.31 0.01,-0.02 0.01,-0.09 0.01,-0.07 0,0.01 0.01,-0.07 0.01,-0.08l-0.45 -1.47c-1.8,-3.64 -7.73,-3.32 -9.94,-0.86 -0.76,0.84 -1.74,2.68 -1.74,4.25z"/>
     <path class="fil23" d="M30.2 74.14l3 0c0,-4.34 -0.38,-3.68 0.89,-4.99 0.36,-0.38 0.57,-0.78 1.1,-0.93 0.13,0.57 2.81,5.19 3.28,5.92l3.7 0c-0.17,-0.76 -1.94,-3.32 -2.45,-4.11 -0.87,-1.36 -1.68,-2.7 -2.53,-4.03 1.29,-2.01 4.36,-4.18 4.7,-5.47 -4.99,0 -3.15,-0.48 -5.31,1.73 -0.71,0.73 -2.73,3.28 -3.38,3.74l0 -5.47 -3 0 0 13.61z"/>
    </g>
    <path class="fil20" d="M12.82 54.07l20.56 0c-0.42,-0.76 -2.91,-2.98 -3.6,-3.9l-21.52 0c0.38,0.58 0.56,0.56 1.04,1 2.01,1.84 1.61,1.38 3.52,2.9z"/>
    <path class="fil21" d="M1.28 38.21c1.48,0 16.38,-0.2 16.99,0.1 1.1,0.54 -0.34,0.85 2.53,0.85l34.19 0 0.43 -1.18 -35.47 0c-1.98,0 -1.64,0.25 -2.69,-0.86 -0.94,-0.98 -0.62,-1.05 -2.44,-1.04 -4.7,0.03 -9.41,0 -14.11,0 0.2,0.47 0.46,1.56 0.57,2.13z"/>
    <path class="fil20" d="M1.99 40.1l52.72 0c0.19,-0.38 0.25,-0.38 0.28,-0.94l-34.19 0c-2.87,0 -1.43,-0.31 -2.53,-0.85 -0.61,-0.3 -15.51,-0.1 -16.99,-0.1 0.29,0.55 0.41,1.29 0.71,1.89z"/>
    <path class="fil20" d="M29.78 50.17l18.66 0c0.4,-0.29 0.33,-0.27 0.63,-0.68 0.44,-0.6 1.36,-1.43 1.79,-2.28l-23.84 0.05 2.76 2.91z"/>
    <path class="fil22" d="M54.71 18.79c-0.11,-0.47 -0.95,-2.51 -1.29,-2.93 -0.02,-0.02 -0.06,-0.06 -0.07,-0.08 -0.01,-0.01 -0.04,-0.04 -0.07,-0.07l-21.68 0c0.51,1 1.32,1.75 1.72,3.07 0.84,-0.21 2.01,-1.58 4.73,-1.39 0.88,0.06 1.72,0.31 2.42,0.66 1.15,0.56 0.67,0.76 2.27,0.75 3.98,-0.04 7.98,-0.01 11.97,-0.01z"/>
    <polygon class="fil24" points="0,30.03 56.7,30.03 56.7,29.02 0,29.02 "/>
    <path class="fil22" d="M1.99 18.78c1.23,-0.48 3.7,-2.77 7.73,-1.05 0.82,0.35 1.53,1.02 2.27,1.05 0.4,-1.31 1.21,-2.07 1.72,-3.06l-10.29 -0.01 -0.41 0.59c-0.15,0.32 -0.19,0.48 -0.35,0.82 -0.24,0.49 -0.54,1.14 -0.67,1.66z"/>
    <path class="fil22" d="M55.99 22.82c-0.19,-0.47 -0.45,-1.57 -0.57,-2.13l-12.05 0.01 0.79 1.95c0.85,-0.34 1.23,-0.84 2.48,-0.98 2.45,-0.28 3.15,1.03 4.07,1.14l5.28 0.01z"/>
    <path class="fil20" d="M36.9 57.44c1.05,-0.15 2.63,-0.96 3.51,-1.4l1.62 -0.84c0.52,-0.28 1.11,-0.66 1.57,-1.01l-9.81 0 3.11 3.25z"/>
    <path class="fil21" d="M0.57 35.13l14.68 0c-0.33,-0.52 -0.69,-0.69 -0.98,-1.22l-13.84 -0.01c0,0.67 0.04,0.71 0.14,1.23z"/>
    <path class="fil22" d="M56.28 24.99c0,-0.66 -0.05,-0.71 -0.15,-1.22l-4.81 0.01 0.56 1.19 4.4 0.02z"/>
   </g>
  </g>
 </g>
</svg>
